<?xml version="1.0" standalone="no"?>
<!DOCTYPE svg PUBLIC "-//W3C//DTD SVG 20010904//EN"
 "http://www.w3.org/TR/2001/REC-SVG-20010904/DTD/svg10.dtd">
<svg version="1.0" xmlns="http://www.w3.org/2000/svg"
 width="820.000000pt" height="227.000000pt" viewBox="0 0 820.000000 227.000000"
 preserveAspectRatio="xMidYMid meet">

<g transform="translate(0.000000,227.000000) scale(0.100000,-0.100000)"
fill="#000000" stroke="none">
<path d="M6157 1662 c-81 -81 -102 -112 -77 -112 6 0 10 -7 10 -15 0 -8 4 -23
10 -33 5 -9 17 -35 26 -57 10 -22 20 -42 23 -45 4 -3 15 -23 26 -45 11 -22 22
-42 25 -45 7 -7 29 -42 37 -60 4 -8 13 -21 21 -29 12 -12 15 -12 23 0 5 8 9
16 9 19 0 3 16 23 35 43 19 20 35 40 35 45 0 4 11 19 25 34 26 28 32 57 16 73
-5 6 -20 31 -34 56 -13 25 -29 54 -35 65 -14 24 -78 165 -83 182 -2 7 -42 -26
-92 -76z"/>
<path d="M3751 1687 c-7 -23 -16 -49 -21 -57 -4 -9 -11 -36 -15 -60 -7 -39 -6
-42 7 -29 9 8 18 24 22 36 4 12 18 33 33 47 23 24 33 26 105 26 l80 0 -5 -27
c-27 -126 -33 -152 -39 -159 -5 -4 -8 -19 -8 -34 0 -15 -3 -30 -7 -34 -7 -7
-27 -87 -40 -164 -3 -18 -9 -35 -14 -38 -5 -3 -9 -16 -9 -28 0 -13 -7 -48 -16
-77 -8 -30 -21 -71 -27 -92 -12 -43 -39 -67 -76 -67 -14 0 -21 -4 -15 -8 5 -5
60 -6 123 -3 111 6 113 6 77 20 -42 14 -42 18 -17 116 5 22 17 69 26 105 9 36
20 82 26 103 22 90 28 116 41 175 7 34 16 62 20 62 5 0 8 12 8 26 0 14 7 47
16 75 l16 49 78 0 78 0 7 -40 c4 -21 4 -48 0 -60 -5 -14 -2 -20 9 -20 11 0 16
9 16 30 0 17 5 30 10 30 6 0 10 12 10 28 1 15 7 44 14 65 12 31 12 37 0 37 -8
0 -14 -7 -14 -15 0 -23 -31 -26 -255 -23 -206 3 -210 3 -221 25 -10 22 -11 21
-23 -20z"/>
<path d="M3420 1681 c-70 -38 -110 -107 -110 -191 0 -46 19 -110 32 -110 4 0
8 -6 8 -13 0 -7 15 -29 33 -48 54 -57 117 -144 117 -162 0 -9 5 -19 10 -22 6
-3 10 -21 10 -40 0 -19 -4 -37 -10 -40 -5 -3 -10 -17 -10 -31 0 -15 -15 -39
-40 -64 -38 -38 -43 -40 -101 -40 -56 0 -63 3 -94 34 -25 26 -35 47 -40 85
-11 79 -26 61 -23 -26 l3 -78 40 -19 c52 -25 158 -27 202 -3 145 78 178 265
68 383 -77 83 -118 135 -142 183 -15 28 -17 101 -3 101 6 0 10 7 10 16 0 20
54 74 74 74 8 0 18 5 21 10 9 14 61 12 87 -2 44 -25 57 -51 58 -107 0 -39 3
-52 11 -44 11 11 28 112 21 131 -14 43 -166 57 -232 23z"/>
<path d="M4505 1689 c-6 -8 -16 -25 -22 -39 -6 -14 -29 -63 -52 -110 -22 -47
-41 -91 -41 -98 0 -7 -3 -12 -8 -12 -4 0 -15 -19 -25 -42 -10 -24 -24 -55 -30
-70 -7 -16 -15 -28 -19 -28 -5 0 -8 -5 -8 -11 0 -7 -22 -58 -50 -115 -27 -57
-50 -108 -50 -114 0 -5 -4 -10 -10 -10 -5 0 -10 -6 -10 -14 0 -19 -51 -72 -78
-80 -50 -16 -16 -26 91 -26 101 1 110 2 93 15 -11 8 -27 15 -36 15 -9 0 -23
11 -30 24 -14 27 -12 36 36 146 40 91 29 85 151 88 125 3 128 1 137 -93 2 -27
8 -65 11 -82 11 -49 0 -77 -35 -90 -16 -6 -30 -15 -30 -20 0 -4 83 -8 185 -8
102 0 185 3 185 8 0 4 -5 7 -10 7 -17 0 -60 47 -60 65 0 8 4 23 9 33 5 9 17
53 27 97 10 44 21 84 26 89 4 6 8 22 8 36 0 15 3 30 7 34 8 7 28 78 40 139 3
15 9 27 13 27 4 0 10 22 14 48 3 26 14 59 24 72 17 24 17 22 24 -105 4 -71 10
-223 14 -337 4 -144 10 -208 18 -208 6 0 25 29 41 65 17 36 33 65 38 65 4 0 7
9 7 19 0 11 3 21 8 23 4 2 27 44 52 93 25 50 47 92 50 95 3 3 25 46 50 95 24
50 47 92 50 95 3 3 19 32 35 65 38 76 53 93 61 70 4 -9 2 -20 -3 -24 -6 -3
-13 -22 -16 -41 -14 -95 -30 -177 -38 -195 -4 -11 -10 -36 -13 -55 -3 -19 -12
-71 -20 -115 -9 -44 -19 -99 -22 -123 -4 -23 -11 -45 -15 -48 -5 -3 -9 -15 -9
-28 0 -23 -34 -46 -67 -46 -9 0 -14 -3 -10 -6 8 -8 206 -8 214 0 4 3 -3 6 -14
6 -11 0 -26 7 -33 15 -12 15 -11 25 10 135 6 30 15 83 20 118 5 35 12 67 15
71 3 5 10 38 15 73 6 34 15 88 20 118 29 175 39 196 100 211 14 4 -12 7 -57 8
l-82 1 -23 -47 c-13 -27 -26 -49 -30 -51 -5 -2 -8 -10 -8 -18 0 -8 -4 -14 -10
-14 -5 0 -10 -7 -10 -16 0 -14 -27 -72 -40 -84 -3 -3 -14 -24 -25 -47 -11 -24
-23 -43 -27 -43 -5 0 -8 -6 -8 -14 0 -17 -32 -80 -42 -84 -5 -2 -8 -10 -8 -18
0 -8 -4 -14 -10 -14 -5 0 -10 -8 -10 -19 0 -10 -7 -24 -15 -31 -8 -7 -15 -19
-15 -26 0 -8 -3 -14 -8 -14 -4 0 -12 -10 -17 -22 -6 -12 -16 -23 -22 -26 -10
-3 -13 22 -14 100 -1 57 -4 189 -8 293 l-6 190 -85 1 c-47 1 -74 0 -61 -3 13
-3 30 -11 38 -18 15 -16 18 -75 3 -75 -5 0 -10 -11 -10 -24 0 -13 -7 -40 -15
-59 -8 -20 -15 -48 -15 -62 0 -14 -4 -25 -10 -25 -5 0 -10 -13 -10 -29 0 -17
-4 -32 -9 -35 -5 -4 -12 -29 -16 -56 -4 -27 -11 -52 -16 -56 -5 -3 -9 -14 -9
-25 0 -10 -4 -27 -10 -37 -5 -9 -14 -39 -20 -67 -19 -87 -23 -100 -29 -105 -3
-3 -10 -13 -16 -23 -5 -10 -22 -26 -37 -35 -37 -22 -78 -2 -78 39 0 15 -4 31
-10 34 -5 3 -10 23 -10 43 -1 20 -7 66 -15 102 -8 36 -14 84 -15 107 0 23 -4
45 -10 48 -5 3 -10 25 -10 48 0 23 -4 58 -10 77 -5 19 -14 69 -20 110 -18 131
-24 155 -35 139z m-21 -170 c3 -17 6 -49 6 -70 0 -21 4 -48 9 -61 4 -13 11
-51 15 -85 l7 -63 -101 0 c-116 0 -115 -1 -70 87 17 31 30 63 30 70 0 7 5 13
10 13 6 0 10 9 10 20 0 11 5 20 10 20 6 0 10 4 10 10 0 21 35 90 46 90 6 0 14
-14 18 -31z"/>
<path d="M5880 1665 c-8 -19 -17 -35 -22 -35 -4 0 -8 -6 -8 -13 0 -7 -22 -58
-50 -114 -27 -56 -50 -106 -50 -112 0 -6 -4 -11 -10 -11 -5 0 -10 -6 -10 -13
0 -7 -27 -66 -60 -132 -33 -66 -60 -125 -60 -131 0 -6 -7 -17 -15 -24 -8 -7
-15 -21 -15 -31 0 -11 -3 -19 -8 -19 -4 0 -13 -13 -20 -30 -8 -16 -20 -30 -28
-30 -8 0 -14 -4 -14 -10 0 -5 -6 -10 -14 -10 -7 0 -19 -7 -26 -15 -11 -13 1
-15 99 -15 107 0 143 11 80 25 -18 4 -33 16 -38 28 -11 28 -2 86 15 112 8 11
14 27 14 37 0 10 5 18 10 18 6 0 10 8 10 18 0 9 7 25 14 35 12 15 28 17 127
15 l114 -3 8 -60 c4 -33 10 -88 13 -122 l6 -61 -38 -21 c-22 -11 -37 -20 -34
-21 12 -2 200 -5 200 -3 0 1 -11 13 -25 27 -17 17 -25 36 -25 59 0 18 -4 37
-9 43 -5 5 -11 32 -14 59 -2 28 -12 95 -22 150 -9 55 -20 125 -25 155 -21 145
-42 266 -49 277 -5 9 -12 2 -21 -22z m-10 -152 c0 -21 7 -73 15 -116 8 -43 15
-96 15 -118 l0 -39 -101 0 c-99 0 -100 0 -93 23 3 12 11 24 15 25 5 2 9 11 9
21 0 9 7 26 15 37 8 10 15 27 15 37 0 9 4 17 8 17 4 0 16 23 27 50 11 28 23
50 27 50 4 0 8 11 8 25 0 18 5 25 20 25 16 0 20 -7 20 -37z"/>
<path d="M1603 1665 c2 -5 13 -11 25 -13 19 -3 22 -10 22 -57 0 -30 -4 -57
-10 -60 -5 -3 -10 -21 -10 -39 0 -18 -3 -36 -7 -40 -7 -7 -21 -68 -39 -173 -4
-18 -10 -33 -15 -33 -5 0 -9 -11 -9 -24 0 -14 -9 -62 -21 -108 -12 -46 -23
-96 -26 -113 -6 -33 -45 -72 -78 -78 -11 -2 36 -5 105 -5 69 0 118 2 110 5
-54 17 -60 25 -60 79 0 29 5 56 10 59 6 3 10 16 10 28 0 11 8 54 18 94 l17 73
82 0 c45 0 85 5 88 10 3 6 15 10 25 10 10 0 33 8 51 18 79 42 129 123 129 211
0 69 -19 112 -63 143 -30 22 -42 23 -195 23 -106 0 -161 -3 -159 -10z m296
-29 c35 -19 51 -55 51 -116 0 -48 -27 -130 -42 -130 -5 0 -8 -5 -8 -11 0 -15
-61 -69 -77 -69 -7 0 -13 -4 -13 -9 0 -5 -15 -12 -32 -15 -108 -22 -124 -17
-120 41 2 21 7 42 12 47 6 6 10 21 10 34 0 31 29 162 41 184 5 10 9 27 9 38 0
18 7 20 70 20 42 0 82 -6 99 -14z"/>
<path d="M2187 1664 c3 -8 14 -14 24 -14 25 0 33 -35 19 -90 -6 -25 -14 -56
-16 -70 -3 -14 -9 -34 -14 -45 -5 -11 -11 -33 -14 -50 -8 -48 -32 -149 -38
-165 -4 -8 -9 -28 -13 -45 -5 -28 -25 -115 -41 -180 -9 -37 -47 -75 -74 -75
-12 0 -19 -3 -17 -7 3 -5 54 -7 113 -5 92 3 104 5 83 15 -20 10 -25 21 -27 61
-2 27 2 54 7 59 6 6 11 22 11 36 0 15 9 58 19 96 l18 70 41 3 c46 3 60 -11 82
-83 7 -22 16 -49 21 -60 15 -38 39 -116 39 -128 0 -7 6 -25 13 -40 11 -25 17
-27 72 -27 l60 0 -31 19 c-32 20 -64 70 -64 101 0 9 -3 20 -7 24 -9 8 -31 90
-40 144 -3 17 -9 32 -14 32 -5 0 -9 11 -9 24 0 17 9 27 33 37 17 7 41 21 51
31 11 10 23 18 26 18 15 0 48 38 73 83 40 72 36 154 -10 204 -6 7 -16 13 -21
13 -6 0 -12 6 -14 13 -4 9 -49 12 -176 14 -144 1 -170 -1 -165 -13z m292 -28
c71 -37 68 -177 -7 -261 -35 -38 -72 -65 -91 -65 -11 0 -21 -4 -23 -10 -1 -5
-29 -12 -62 -16 l-58 -7 4 39 c8 57 28 156 38 179 5 11 11 36 15 55 3 19 8 50
12 68 l5 32 70 0 c40 0 80 -6 97 -14z"/>
<path d="M2776 1665 c10 -8 25 -15 33 -15 10 0 12 -11 8 -42 -8 -65 -31 -165
-39 -174 -5 -4 -8 -22 -8 -39 0 -17 -3 -35 -7 -39 -7 -7 -27 -87 -40 -164 -3
-18 -9 -35 -14 -38 -5 -3 -9 -20 -9 -37 0 -42 -32 -143 -53 -168 -9 -10 -28
-19 -42 -19 -14 0 -25 -3 -25 -7 0 -7 135 -7 483 -3 4 0 7 9 7 19 0 11 5 23
10 26 6 3 10 19 10 35 0 16 5 32 10 35 14 9 12 35 -3 35 -6 0 -18 -14 -26 -32
-15 -34 -45 -68 -61 -68 -5 0 -10 -3 -10 -8 0 -14 -80 -32 -143 -32 -81 0
-107 17 -107 69 0 21 3 41 8 45 4 4 12 33 19 64 6 31 17 77 23 102 6 25 14 57
17 73 5 27 6 27 86 27 94 0 106 -9 107 -82 0 -36 4 -48 15 -48 10 0 15 11 16
33 0 35 31 163 42 173 4 4 7 16 7 27 0 16 -3 17 -15 7 -8 -7 -15 -17 -15 -22
0 -5 -11 -21 -25 -36 -23 -25 -33 -27 -111 -31 l-85 -3 7 53 c4 30 10 59 14
64 4 6 10 26 13 45 3 19 11 63 18 98 l12 62 96 0 c118 -1 133 -10 141 -81 3
-27 10 -49 15 -48 11 2 35 73 35 106 0 12 5 23 12 25 6 2 8 10 4 16 -5 9 -68
12 -229 12 -196 0 -219 -2 -201 -15z"/>
<path d="M1561 814 c0 -11 3 -14 6 -6 3 7 2 16 -1 19 -3 4 -6 -2 -5 -13z"/>
<path d="M3650 824 c0 -15 22 -44 31 -39 5 4 9 -1 9 -10 0 -15 2 -15 15 -1 18
18 19 27 3 25 -27 -3 -38 2 -38 16 0 8 -4 15 -10 15 -5 0 -10 -3 -10 -6z"/>
<path d="M3728 823 c7 -3 16 -2 19 1 4 3 -2 6 -13 5 -11 0 -14 -3 -6 -6z"/>
<path d="M2390 801 l-35 -7 32 -5 c22 -4 34 -1 37 8 3 7 4 12 3 12 -1 -1 -18
-5 -37 -8z"/>
<path d="M3761 780 c-1 -34 -1 -34 15 -12 10 15 26 22 52 24 l37 1 -33 4 c-18
3 -39 -1 -47 -7 -10 -8 -14 -7 -18 7 -3 10 -5 2 -6 -17z"/>
<path d="M1433 785 c-17 -19 -16 -26 1 -19 15 6 30 34 18 34 -4 -1 -13 -7 -19
-15z"/>
<path d="M1490 790 c0 -5 14 -10 30 -10 17 0 30 5 30 10 0 6 -13 10 -30 10
-16 0 -30 -4 -30 -10z"/>
<path d="M1670 796 c0 -2 15 -6 34 -8 19 -2 32 0 30 4 -5 8 -64 12 -64 4z"/>
<path d="M1830 796 c0 -2 9 -6 20 -9 11 -3 18 -1 14 4 -5 9 -34 13 -34 5z"/>
<path d="M1893 793 c9 -2 25 -2 35 0 9 3 1 5 -18 5 -19 0 -27 -2 -17 -5z"/>
<path d="M2016 791 c-4 -5 3 -7 14 -4 23 6 26 13 6 13 -8 0 -17 -4 -20 -9z"/>
<path d="M2074 792 c3 -5 18 -7 34 -4 22 3 33 -2 46 -19 9 -13 16 -18 16 -11
0 24 -28 42 -65 42 -20 0 -34 -4 -31 -8z"/>
<path d="M2188 793 c7 -3 16 -2 19 1 4 3 -2 6 -13 5 -11 0 -14 -3 -6 -6z"/>
<path d="M2288 793 c7 -3 16 -2 19 1 4 3 -2 6 -13 5 -11 0 -14 -3 -6 -6z"/>
<path d="M2508 793 c12 -2 30 -2 40 0 9 3 -1 5 -23 4 -22 0 -30 -2 -17 -4z"/>
<path d="M2573 785 c-7 -8 -9 -16 -5 -19 4 -3 13 4 20 15 14 22 3 25 -15 4z"/>
<path d="M2636 791 c-4 -6 1 -14 10 -18 10 -4 19 -2 22 5 6 20 69 14 84 -7 12
-17 15 -17 28 -3 13 14 12 15 -3 9 -11 -4 -20 -1 -23 8 -7 18 -79 21 -90 4 -5
-8 -9 -8 -14 1 -5 9 -9 9 -14 1z"/>
<path d="M2818 793 c12 -2 30 -2 40 0 9 3 -1 5 -23 4 -22 0 -30 -2 -17 -4z"/>
<path d="M2980 785 c-9 -10 -9 -15 -1 -15 6 0 11 5 11 11 0 7 15 10 40 7 22
-2 40 0 40 4 0 15 -77 8 -90 -7z"/>
<path d="M3100 791 c8 -6 23 -8 34 -5 10 4 23 0 28 -7 8 -11 9 -11 5 1 -2 9
-18 16 -43 18 -29 2 -35 0 -24 -7z"/>
<path d="M3193 793 c9 -2 25 -2 35 0 9 3 1 5 -18 5 -19 0 -27 -2 -17 -5z"/>
<path d="M3435 790 c4 -6 11 -8 16 -5 14 9 11 15 -7 15 -8 0 -12 -5 -9 -10z"/>
<path d="M3493 793 c9 -2 25 -2 35 0 9 3 1 5 -18 5 -19 0 -27 -2 -17 -5z"/>
<path d="M3583 793 c9 -2 25 -2 35 0 9 3 1 5 -18 5 -19 0 -27 -2 -17 -5z"/>
<path d="M3900 790 c0 -5 -6 -10 -14 -10 -10 0 -12 -7 -8 -22 4 -16 7 -18 10
-8 9 26 29 39 68 43 37 3 37 4 -8 5 -27 1 -48 -2 -48 -8z"/>
<path d="M2455 769 c-4 -11 -4 -23 -1 -26 3 -4 6 1 6 10 0 8 5 17 12 19 9 3 9
6 1 11 -7 4 -14 -1 -18 -14z"/>
<path d="M1630 763 c0 -10 4 -14 8 -8 4 6 11 13 16 18 5 4 2 7 -7 7 -10 0 -17
-8 -17 -17z"/>
<path d="M1750 760 c0 -19 3 -21 12 -12 9 9 9 15 0 24 -9 9 -12 7 -12 -12z"/>
<path d="M1950 773 c0 -5 8 -17 17 -28 14 -18 15 -18 9 -2 -3 10 -6 23 -6 28
0 5 -4 9 -10 9 -5 0 -10 -3 -10 -7z"/>
<path d="M2262 755 c0 -16 2 -22 5 -12 2 9 2 23 0 30 -3 6 -5 -1 -5 -18z"/>
<path d="M2317 773 c-11 -10 -8 -35 3 -28 6 4 8 10 5 15 -3 4 1 11 7 13 7 3 8
6 2 6 -6 1 -14 -2 -17 -6z"/>
<path d="M2890 755 c0 -15 4 -24 10 -20 6 3 10 12 10 20 0 8 -4 17 -10 20 -6
4 -10 -5 -10 -20z"/>
<path d="M3332 760 c0 -14 2 -19 5 -12 2 6 2 18 0 25 -3 6 -5 1 -5 -13z"/>
<path d="M3641 764 c0 -11 3 -14 6 -6 3 7 2 16 -1 19 -3 4 -6 -2 -5 -13z"/>
<path d="M4000 760 c6 -11 13 -20 16 -20 2 0 0 9 -6 20 -6 11 -13 20 -16 20
-2 0 0 -9 6 -20z"/>
<path d="M1552 750 c0 -14 2 -19 5 -12 2 6 2 18 0 25 -3 6 -5 1 -5 -13z"/>
<path d="M1582 745 c0 -16 2 -22 5 -12 2 9 2 23 0 30 -3 6 -5 -1 -5 -18z"/>
<path d="M1810 758 c0 -7 5 -20 10 -28 8 -12 10 -11 10 7 0 12 -4 25 -10 28
-5 3 -10 0 -10 -7z"/>
<path d="M2945 750 c-7 -12 12 -50 25 -50 14 0 12 6 -7 25 -14 14 -14 18 -2
26 9 5 10 9 2 9 -6 0 -15 -4 -18 -10z"/>
<path d="M3081 744 c0 -11 3 -14 6 -6 3 7 2 16 -1 19 -3 4 -6 -2 -5 -13z"/>
<path d="M3272 740 c0 -14 2 -19 5 -12 2 6 2 18 0 25 -3 6 -5 1 -5 -13z"/>
<path d="M1427 743 c-11 -10 -8 -53 3 -53 6 0 10 14 10 30 0 31 -2 35 -13 23z"/>
<path d="M1680 742 c0 -10 62 -34 69 -26 3 2 -5 7 -17 11 -12 3 -22 9 -22 14
0 5 -7 9 -15 9 -8 0 -15 -4 -15 -8z"/>
<path d="M1870 731 c0 -19 2 -20 20 -9 17 11 22 10 31 -2 8 -12 10 -11 7 5 -2
13 -12 21 -31 23 -22 3 -27 -1 -27 -17z"/>
<path d="M2015 723 c-11 -39 -13 -65 -5 -56 9 9 23 83 17 83 -3 0 -8 -12 -12
-27z"/>
<path d="M2082 738 c-15 -15 -16 -38 -2 -38 6 0 10 7 10 15 0 18 26 20 34 3 3
-7 5 -4 3 7 -3 23 -27 31 -45 13z"/>
<path d="M2360 740 c0 -5 7 -10 15 -10 8 0 15 5 15 10 0 6 -7 10 -15 10 -8 0
-15 -4 -15 -10z"/>
<path d="M2493 734 c-15 -15 -17 -64 -4 -64 18 0 41 12 41 22 0 7 -5 6 -13 -1
-18 -14 -26 -5 -20 20 3 10 14 19 24 19 11 0 19 4 19 8 0 13 -34 11 -47 -4z"/>
<path d="M2676 734 c-9 -24 -7 -28 9 -14 12 10 15 10 15 -1 0 -8 -5 -21 -10
-29 -8 -13 -11 -12 -24 5 -13 17 -15 17 -16 4 0 -9 7 -19 15 -23 25 -9 45 5
45 31 0 13 4 21 10 18 6 -3 7 1 4 9 -8 21 -40 20 -48 0z"/>
<path d="M2810 740 c0 -5 6 -10 14 -10 8 0 23 -3 33 -7 17 -6 17 -6 1 10 -18
19 -48 23 -48 7z"/>
<path d="M3010 740 c0 -5 6 -10 14 -10 8 0 22 -7 30 -16 15 -14 16 -14 16 0 0
9 -7 16 -15 16 -8 0 -15 5 -15 10 0 6 -7 10 -15 10 -8 0 -15 -4 -15 -10z"/>
<path d="M3180 740 c0 -5 9 -10 20 -10 11 0 20 5 20 10 0 6 -9 10 -20 10 -11
0 -20 -4 -20 -10z"/>
<path d="M3482 738 c-7 -7 -12 -21 -11 -32 0 -19 2 -18 11 4 l11 25 7 -30 c6
-23 8 -25 9 -8 0 12 4 28 7 37 7 19 -16 22 -34 4z"/>
<path d="M3570 736 c0 -9 7 -12 20 -9 11 3 17 9 14 14 -8 14 -34 10 -34 -5z"/>
<path d="M3692 725 c0 -16 2 -22 5 -12 2 9 2 23 0 30 -3 6 -5 -1 -5 -18z"/>
<path d="M3790 740 c0 -13 20 -13 40 0 12 8 9 10 -12 10 -16 0 -28 -4 -28 -10z"/>
<path d="M3930 740 c0 -5 7 -10 15 -10 9 0 27 -12 42 -26 14 -14 28 -22 32
-19 3 4 -2 12 -11 19 -10 7 -15 16 -11 19 3 4 -3 7 -15 7 -12 0 -22 5 -22 10
0 6 -7 10 -15 10 -8 0 -15 -4 -15 -10z"/>
<path d="M2621 724 c0 -11 3 -14 6 -6 3 7 2 16 -1 19 -3 4 -6 -2 -5 -13z"/>
<path d="M1480 702 c0 -15 -5 -33 -12 -40 -9 -9 -8 -12 5 -12 13 0 17 9 17 40
0 22 -2 40 -5 40 -3 0 -5 -13 -5 -28z"/>
<path d="M1630 722 c0 -22 38 -55 55 -48 9 3 14 10 10 15 -3 6 -12 8 -19 5 -8
-3 -21 5 -30 18 -9 12 -16 17 -16 10z"/>
<path d="M2217 723 c-4 -3 -7 -17 -7 -30 0 -36 35 -27 36 10 1 25 1 25 -3 2
-2 -14 -8 -25 -12 -25 -5 0 -6 11 -3 25 4 25 1 31 -11 18z"/>
<path d="M2556 715 c-19 -15 -19 -15 2 -15 13 0 22 6 22 15 0 18 0 18 -24 0z"/>
<path d="M3160 699 c0 -17 4 -28 10 -24 6 3 10 17 10 31 0 13 -4 24 -10 24 -5
0 -10 -14 -10 -31z"/>
<path d="M3422 710 c0 -14 2 -19 5 -12 2 6 2 18 0 25 -3 6 -5 1 -5 -13z"/>
<path d="M3880 722 c0 -6 -11 -12 -24 -12 -14 0 -27 -4 -31 -9 -3 -6 -14 -8
-25 -6 -24 5 -27 -13 -4 -22 10 -4 20 0 26 10 12 22 74 23 86 1 6 -12 16 -14
32 -9 20 6 21 9 7 17 -10 5 -21 7 -26 3 -5 -3 -17 5 -25 17 -9 12 -16 17 -16
10z"/>
<path d="M2405 710 c-4 -6 3 -10 14 -10 25 0 27 6 6 13 -8 4 -17 2 -20 -3z"/>
<path d="M2770 712 c0 -7 5 -12 10 -12 6 0 10 -7 10 -15 0 -17 35 -21 45 -5 5
9 -8 14 -19 8 -2 -2 -13 6 -25 16 -12 11 -21 14 -21 8z"/>
<path d="M3112 695 c0 -16 2 -22 5 -12 2 9 2 23 0 30 -3 6 -5 -1 -5 -18z"/>
<path d="M3194 685 c4 -49 12 -52 14 -5 2 22 -1 40 -7 40 -5 0 -8 -16 -7 -35z"/>
<path d="M3316 698 c-5 -16 -5 -36 0 -45 7 -16 8 -15 11 5 3 12 3 32 0 45 -3
21 -4 20 -11 -5z"/>
<path d="M3372 690 c0 -19 2 -27 5 -17 2 9 2 25 0 35 -3 9 -5 1 -5 -18z"/>
<path d="M3552 695 c1 -14 6 -25 10 -25 4 0 8 11 8 25 0 14 -4 25 -10 25 -5 0
-9 -11 -8 -25z"/>
<path d="M3581 703 c1 -10 5 -29 9 -43 7 -21 8 -19 9 18 1 23 -3 42 -9 42 -5
0 -10 -8 -9 -17z"/>
<path d="M3642 700 c0 -14 2 -19 5 -12 2 6 2 18 0 25 -3 6 -5 1 -5 -13z"/>
<path d="M1530 692 c0 -29 33 -27 38 3 3 17 1 17 -7 5 -10 -13 -12 -13 -21 0
-8 12 -10 11 -10 -8z"/>
<path d="M1900 694 c0 -8 5 -12 10 -9 6 4 8 11 5 16 -9 14 -15 11 -15 -7z"/>
<path d="M2295 700 c-3 -5 -1 -10 4 -10 6 0 11 5 11 10 0 6 -2 10 -4 10 -3 0
-8 -4 -11 -10z"/>
<path d="M3252 685 c0 -16 2 -22 5 -12 2 9 2 23 0 30 -3 6 -5 -1 -5 -18z"/>
<path d="M1957 693 c-4 -3 -7 -11 -7 -17 0 -6 5 -5 12 2 6 6 9 14 7 17 -3 3
-9 2 -12 -2z"/>
<path d="M2095 690 c-4 -6 -11 -8 -16 -5 -5 4 -9 1 -9 -4 0 -6 4 -11 9 -11 17
0 41 12 41 21 0 12 -17 11 -25 -1z"/>
<path d="M2160 690 c0 -5 -10 -20 -21 -31 -12 -12 -17 -24 -12 -28 6 -3 13
-13 17 -21 3 -8 4 -3 2 13 -2 18 1 27 10 27 8 0 14 11 14 25 0 14 -2 25 -5 25
-3 0 -5 -4 -5 -10z"/>
<path d="M2345 690 c-9 -14 14 -22 32 -11 10 6 16 11 13 11 -31 7 -41 7 -45 0z"/>
<path d="M2990 685 c0 -17 18 -19 38 -6 11 7 10 10 -3 15 -26 10 -35 7 -35 -9z"/>
<path d="M1802 665 c0 -16 2 -22 5 -12 2 9 2 23 0 30 -3 6 -5 -1 -5 -18z"/>
<path d="M1870 680 c0 -5 5 -10 11 -10 5 0 7 5 4 10 -3 6 -8 10 -11 10 -2 0
-4 -4 -4 -10z"/>
<path d="M2290 673 c0 -5 8 -17 17 -28 14 -18 15 -18 9 -2 -3 10 -6 23 -6 28
0 5 -4 9 -10 9 -5 0 -10 -3 -10 -7z"/>
<path d="M2422 665 c-11 -12 -10 -15 3 -15 8 0 15 7 15 15 0 18 -2 18 -18 0z"/>
<path d="M2736 665 c-3 -8 -1 -15 4 -15 6 0 10 7 10 15 0 8 -2 15 -4 15 -2 0
-6 -7 -10 -15z"/>
<path d="M2873 665 c0 -8 4 -12 9 -9 4 3 8 9 8 15 0 5 -4 9 -8 9 -5 0 -9 -7
-9 -15z"/>
<path d="M2621 653 c-1 -16 6 -23 30 -28 17 -4 33 -5 35 -2 3 2 -9 7 -25 10
-16 4 -31 14 -34 24 -4 15 -5 14 -6 -4z"/>
<path d="M3060 658 c0 -9 -6 -19 -12 -21 -10 -4 -10 -6 0 -6 14 -1 28 26 18
36 -3 4 -6 -1 -6 -9z"/>
<path d="M3450 654 c0 -8 5 -12 10 -9 6 3 10 10 10 16 0 5 -4 9 -10 9 -5 0
-10 -7 -10 -16z"/>
<path d="M3849 659 c-12 -7 -11 -9 3 -9 9 0 18 -6 21 -12 2 -7 7 -11 10 -8 3
3 0 13 -7 22 -8 11 -17 14 -27 7z"/>
<path d="M1730 649 c0 -5 5 -7 10 -4 6 3 10 8 10 11 0 2 -4 4 -10 4 -5 0 -10
-5 -10 -11z"/>
<path d="M1920 643 c-13 -15 -12 -16 4 -10 10 4 20 7 22 7 2 0 4 5 4 10 0 15
-13 12 -30 -7z"/>
<path d="M2845 640 c-3 -5 -1 -10 4 -10 6 0 11 5 11 10 0 6 -2 10 -4 10 -3 0
-8 -4 -11 -10z"/>
<path d="M3960 639 c0 -5 5 -7 10 -4 6 3 10 8 10 11 0 2 -4 4 -10 4 -5 0 -10
-5 -10 -11z"/>
<path d="M1630 628 c0 -4 6 -8 13 -9 6 0 20 -2 30 -4 9 -2 17 0 17 5 0 4 -13
10 -30 12 -16 3 -30 1 -30 -4z"/>
<path d="M1850 619 c0 -11 5 -19 10 -19 6 0 10 4 10 9 0 5 8 11 18 13 12 3 9
6 -10 10 -23 4 -28 2 -28 -13z"/>
<path d="M2213 633 c-13 -2 -23 -8 -23 -13 0 -10 38 -1 46 11 3 5 4 8 2 8 -2
-1 -13 -4 -25 -6z"/>
<path d="M2708 633 c7 -3 16 -2 19 1 4 3 -2 6 -13 5 -11 0 -14 -3 -6 -6z"/>
<path d="M1515 620 c-3 -6 1 -7 9 -4 18 7 21 14 7 14 -6 0 -13 -4 -16 -10z"/>
<path d="M2060 618 c0 -11 28 -10 35 1 3 6 -4 9 -15 8 -11 -1 -20 -5 -20 -9z"/>
<path d="M2272 615 c-11 -12 -10 -15 3 -15 8 0 15 7 15 15 0 18 -2 18 -18 0z"/>
<path d="M2338 623 c6 -2 18 -2 25 0 6 3 1 5 -13 5 -14 0 -19 -2 -12 -5z"/>
<path d="M2480 622 c0 -4 9 -8 20 -9 11 -1 20 2 20 8 0 5 -9 9 -20 9 -11 0
-20 -4 -20 -8z"/>
<path d="M2795 620 c-3 -5 3 -10 15 -10 12 0 18 5 15 10 -3 6 -10 10 -15 10
-5 0 -12 -4 -15 -10z"/>
<path d="M2980 626 c0 -2 7 -6 15 -10 8 -3 15 -1 15 4 0 6 -7 10 -15 10 -8 0
-15 -2 -15 -4z"/>
<path d="M3788 623 c6 -2 18 -2 25 0 6 3 1 5 -13 5 -14 0 -19 -2 -12 -5z"/>
<path d="M3905 620 c4 -6 11 -8 16 -5 14 9 11 15 -7 15 -8 0 -12 -5 -9 -10z"/>
<path d="M3990 620 c0 -5 5 -10 11 -10 5 0 7 5 4 10 -3 6 -8 10 -11 10 -2 0
-4 -4 -4 -10z"/>
</g>
</svg>
