<svg id="Capa_1" data-name="Capa 1" xmlns="http://www.w3.org/2000/svg" viewBox="0 0 393.97 92.38"><defs><style>.cls-1{fill:#44ad4d;}.cls-2{fill:#fff;}.cls-3{fill:#595a5c;}.cls-4{fill:#231f20;}</style></defs><title>logo-prestamax</title><polygon class="cls-1" points="293.85 87.45 0 87.45 0 70.1 310.79 70.1 293.85 87.45"/><path class="cls-2" d="M21.47,14.65,6,74.75l312.7-.2s31.35-52.19,50.53-59.9Z" transform="translate(-6.03 -4.64)"/><path class="cls-1" d="M400,4.64S347.55,19.24,307.62,97c0,0,25.5-59.82,58.22-80.84,0,0,9.63-6.66,12.43-7.22Z" transform="translate(-6.03 -4.64)"/><path class="cls-1" d="M348,43.82q-5.54,5.88-11.19,12.94a86.55,86.55,0,0,0,42.81,29.88l11.79-11S367.4,69.44,348,43.82Z" transform="translate(-6.03 -4.64)"/><path class="cls-3" d="M340.93,37.84a118.41,118.41,0,0,1-11.76-23.19L317.38,26.44a97.84,97.84,0,0,0,13.3,25.15C333.91,46.77,337.24,42.41,340.93,37.84Z" transform="translate(-6.03 -4.64)"/><path class="cls-4" d="M25.2,62.24c-.17.69-.3,1.33-.41,1.92a9.18,9.18,0,0,0-.16,1.69,2.27,2.27,0,0,0,1.78,2.33,4.4,4.4,0,0,0,1.13.16,7.63,7.63,0,0,1,1.14.08,2.15,2.15,0,0,1,.8.28.9.9,0,0,1-.08,1.46,2.1,2.1,0,0,1-1.21.28,20.53,20.53,0,0,1-2.27-.24A36.19,36.19,0,0,0,21.15,70a31.54,31.54,0,0,0-4.29.24,19.91,19.91,0,0,1-2.51.24c-.64,0-1-.29-1-.88s.23-.83.69-.89a13.12,13.12,0,0,0,1.66-.32,5.46,5.46,0,0,0,1.9-.92,4.67,4.67,0,0,0,1.42-2.7l9-37.06a11.93,11.93,0,0,0,.32-1.81c0-.56.08-1.06.08-1.49a3,3,0,0,0-.56-2.09,2.39,2.39,0,0,0-1.3-.68c-.48-.08-.92-.16-1.29-.24s-.57-.36-.57-.85.51-.88,1.54-.88c.27,0,.94.06,2,.2a41,41,0,0,0,4.61.2c1.73,0,3.37-.05,4.94-.16s3.07-.16,4.53-.16q5.26,0,8,2.82c1.83,1.87,2.75,4.61,2.75,8.2a17.65,17.65,0,0,1-1.37,7,14.68,14.68,0,0,1-4.13,5.47,19.47,19.47,0,0,1-6.76,3.54A30.93,30.93,0,0,1,31.67,48H30.13c-.48,0-1,0-1.54-.08Zm5.38-16.19c.51,0,1,0,1.41,0a15.8,15.8,0,0,0,6.52-1.33,15.55,15.55,0,0,0,5.05-3.58,16.56,16.56,0,0,0,3.28-5.1,15.63,15.63,0,0,0,1.17-6c0-3.21-.87-5.42-2.63-6.63s-4.32-1.81-7.72-1.81c-.49,0-1,0-1.58.08s-1.17.14-1.82.24l-5.34,24Z" transform="translate(-6.03 -4.64)"/><path class="cls-4" d="M78.6,50.67l3,10.57a26.76,26.76,0,0,0,1.46,4.11,5.19,5.19,0,0,0,1.86,2.26,5.27,5.27,0,0,0,1.09.61l1,.36a2.4,2.4,0,0,1,.73.4.82.82,0,0,1,.28.65c0,.6-.37.89-1.13.89a5.59,5.59,0,0,1-1.21-.16,7.8,7.8,0,0,0-1.7-.16,7.54,7.54,0,0,0-1.38.12,7,7,0,0,1-1.29.12c-1.08,0-1.86-.75-2.35-2.26L73.74,51.83a12.52,12.52,0,0,0-1.45-3.28,2.51,2.51,0,0,0-2.47-1,1.73,1.73,0,0,1-.37,0L66.62,48l-3.4,14.4c-.16.7-.29,1.36-.4,2A9.63,9.63,0,0,0,62.66,66a2.27,2.27,0,0,0,.56,1.82,3.21,3.21,0,0,0,1.26.61c.46.11.87.21,1.25.32a.81.81,0,0,1,.57.89c0,.54-.22.81-.65.81A15.78,15.78,0,0,1,64,70.28a29.64,29.64,0,0,0-3.6-.16,47.15,47.15,0,0,0-5.38.24c-1.32.16-2.2.24-2.63.24-.65,0-1-.29-1-.88a.81.81,0,0,1,.69-.93l1.66-.32a4.15,4.15,0,0,0,3.31-3.59l9-37.19a11.93,11.93,0,0,0,.32-1.81c.05-.56.08-1.06.08-1.49a3,3,0,0,0-.57-2.1,2.34,2.34,0,0,0-1.29-.69q-.73-.12-1.29-.24c-.38-.08-.57-.36-.57-.85,0-.64.51-1,1.54-1,.21,0,1.06.05,2.54.16s3.71.16,6.68.16c1.19,0,2.35,0,3.48-.08s2.27-.08,3.4-.08q5.25,0,8,2.58t2.75,7.5q0,10.32-14.4,16.37A36.26,36.26,0,0,1,78.6,50.67Zm-3.81-6a17.63,17.63,0,0,0,5.91-3.4,15.31,15.31,0,0,0,3.76-5.05,14.51,14.51,0,0,0,1.34-6.17c0-3.26-.82-5.47-2.47-6.65s-4.17-1.76-7.56-1.76c-.44,0-.93,0-1.5.08s-1.17.13-1.82.24L67,46A24.43,24.43,0,0,0,74.79,44.68Z" transform="translate(-6.03 -4.64)"/><path class="cls-4" d="M128.2,29.82a5.4,5.4,0,0,1-.49,1.3.93.93,0,0,1-1.5,0,1.68,1.68,0,0,1-.28-1c0-.6,0-1.08,0-1.46s0-.62,0-.73q0-3.39-1.86-4.85t-5.74-1.46c-1.24,0-2.47,0-3.68.08s-2.45.14-3.69.25l-4.53,20.55H113a15,15,0,0,0,3.6-.37,5,5,0,0,0,2.54-1.66,9.16,9.16,0,0,0,1.22-1.66c.32-.56.59-1.09.81-1.57a6.59,6.59,0,0,1,.64-1.18,1,1,0,0,1,.81-.44c.44,0,.65.35.65,1.05a16,16,0,0,1-.85,2.83c-.56,1.62-1.23,4-2,7.2q-.81,3.41-1.05,5.1c-.16,1.13-.57,1.7-1.22,1.7s-1-.43-1-1.29c0-.38,0-.73,0-1.06s0-.62,0-.89v-.4c0-1,0-1.79-.08-2.47a3.4,3.4,0,0,0-.52-1.66,2.71,2.71,0,0,0-1.42-1,9.3,9.3,0,0,0-2.75-.32h-6.72L101.9,59.84c-.27,1.24-.5,2.31-.69,3.2a11,11,0,0,0-.28,2.22,3.14,3.14,0,0,0,.85,2.51,4.1,4.1,0,0,0,2.71.73h6A11.23,11.23,0,0,0,119.13,65,12.61,12.61,0,0,0,121,62.63c.4-.73.72-1.36,1-1.9a12.89,12.89,0,0,1,.64-1.29.92.92,0,0,1,.85-.49.82.82,0,0,1,.53.28,1,1,0,0,1,.28.77,6.88,6.88,0,0,1-.24,1.3l-1.7,6.23q-.41,1.53-.69,2.43c-.19.59-.52.89-1,.89-.21,0-1.23-.11-3-.33a91,91,0,0,0-9.19-.32q-9.06,0-13.39.28c-2.88.19-4.49.28-4.81.28q-1.38,0-1.38-1.05a.91.91,0,0,1,.37-.81,2.22,2.22,0,0,1,1-.32c.4,0,.85-.09,1.33-.12a4.77,4.77,0,0,0,1.38-.28,2.8,2.8,0,0,0,1.74-1.78,38.74,38.74,0,0,0,1.17-3.89l8.42-34.95a17.78,17.78,0,0,0,.48-3.81,2,2,0,0,0-.56-1.7,3.18,3.18,0,0,0-1.3-.52q-.74-.12-1.29-.24c-.38-.08-.57-.37-.57-.85,0-.7.43-1.06,1.29-1.06.27,0,1.69.06,4.25.17s6.6.16,12.1.16q4.84,0,7.4-.08c1.7-.06,2.68-.08,3-.08a3.35,3.35,0,0,1,1.29.16c.22.11.32.46.32,1.05a10,10,0,0,1-.32,1.54Z" transform="translate(-6.03 -4.64)"/><path class="cls-4" d="M159,29.26c-.16,1-.51,1.45-1.06,1.45s-.73-.48-.73-1.45V27.15a7.47,7.47,0,0,0-1.8-5.46,6.9,6.9,0,0,0-5.14-1.82,8.66,8.66,0,0,0-3.63.77,9.68,9.68,0,0,0-2.94,2.09,10.16,10.16,0,0,0-2,3.11,10,10,0,0,0-.74,3.87,9.13,9.13,0,0,0,.73,3.75,14.87,14.87,0,0,0,2.18,3.43l4.78,5.65,2.51,2.82a19.88,19.88,0,0,1,2.14,2.9,15.19,15.19,0,0,1,1.5,3.35,14.52,14.52,0,0,1,.56,4.24,15.93,15.93,0,0,1-1.25,6.33,16.42,16.42,0,0,1-3.4,5.12,16.19,16.19,0,0,1-5,3.43,14.75,14.75,0,0,1-6,1.25,15.9,15.9,0,0,1-4.53-.72,20.72,20.72,0,0,1-4.45-1.87,2.77,2.77,0,0,1-1.1-1,2.84,2.84,0,0,1-.2-1v-.57l.24-7a5,5,0,0,1,.17-1.42c.1-.35.29-.52.56-.52a.72.72,0,0,1,.69.36,3.71,3.71,0,0,1,.32,1.13c.08.52.17,1.15.25,1.91s.23,1.64.44,2.67a7.73,7.73,0,0,0,2.71,4.33,8.18,8.18,0,0,0,5.46,1.9,8.38,8.38,0,0,0,3.85-.93,9.71,9.71,0,0,0,3.11-2.51,12.54,12.54,0,0,0,2.07-3.75,13.85,13.85,0,0,0,.76-4.61,10.21,10.21,0,0,0-1.41-5.45,46.46,46.46,0,0,0-3.52-4.89L141.14,43q-4.44-5.25-4.45-10.26a16.46,16.46,0,0,1,1.1-6.14,13.26,13.26,0,0,1,7.78-7.63,16.67,16.67,0,0,1,5.87-1,15.93,15.93,0,0,1,3.38.35,13.82,13.82,0,0,1,2.81.93,6.57,6.57,0,0,1,1.92,1.3,2.25,2.25,0,0,1,.69,1.54v.33Z" transform="translate(-6.03 -4.64)"/><path class="cls-4" d="M194.06,19.71a7.45,7.45,0,0,0,3-.45,3.68,3.68,0,0,0,1.42-1,5,5,0,0,0,.65-1,.63.63,0,0,1,.6-.44q.57,0,.57.72v.57a2.55,2.55,0,0,1-.16.81l-2.75,10.52c-.16.65-.49,1-1,1a.72.72,0,0,1-.65-.41,1.84,1.84,0,0,1-.24-1,9.31,9.31,0,0,1,.08-1.29,11.2,11.2,0,0,0,.08-1.3c0-1.88-.27-3.15-.81-3.8s-1.62-1-3.24-1h-5.26a1.25,1.25,0,0,0-1.13.49,4.86,4.86,0,0,0-.57,1.37L174.56,64.05a11.17,11.17,0,0,0-.41,2.51,1.28,1.28,0,0,0,.69,1.29,6.32,6.32,0,0,0,1.54.49c.57.11,1.08.23,1.54.36a.89.89,0,0,1,.69.93c0,.65-.52,1-1.54,1a11.87,11.87,0,0,1-1.66-.2,19.72,19.72,0,0,0-3.12-.2,47.19,47.19,0,0,0-5.82.28,27.63,27.63,0,0,1-3,.28c-.75,0-1.13-.32-1.13-1s.3-1,.89-1a10.27,10.27,0,0,0,2.35-.32,4,4,0,0,0,2-1,6.11,6.11,0,0,0,1.13-2.55l10.52-41.1a5.26,5.26,0,0,0,.25-1.46c0-.49-.52-.73-1.54-.73h-3.89a11.18,11.18,0,0,0-4.2.69A7.11,7.11,0,0,0,166.79,25a10.64,10.64,0,0,0-1.13,1.86q-.41.89-.69,1.62a5.27,5.27,0,0,1-.61,1.17,1,1,0,0,1-.8.45c-.6,0-.89-.33-.89-1a5.93,5.93,0,0,1,.32-1.37l3.07-10.2a3.45,3.45,0,0,1,.37-1,.66.66,0,0,1,.6-.32.53.53,0,0,1,.57.53c.05.35.14.75.24,1.21a2.36,2.36,0,0,0,.73,1.21,3.16,3.16,0,0,0,2.11.53Z" transform="translate(-6.03 -4.64)"/><path class="cls-4" d="M224.08,65.18a4.36,4.36,0,0,0,.81,2.19,4.28,4.28,0,0,0,1.17,1c.41.21.76.39,1.05.52a.78.78,0,0,1,.45.77c0,.65-.46,1-1.38,1a12.26,12.26,0,0,1-1.9-.2,17.18,17.18,0,0,0-2.79-.2,21.82,21.82,0,0,0-3.28.24,21.21,21.21,0,0,1-3.19.24c-1,0-1.46-.32-1.46-1a1.12,1.12,0,0,1,.77-1.21c.51-.16,1.06-.31,1.66-.45a6.08,6.08,0,0,0,1.66-.64,2,2,0,0,0,.76-1.9,8.32,8.32,0,0,0,0-.85,7.9,7.9,0,0,0-.12-.93L216.31,51H201.83l-4.21,9.71a10.18,10.18,0,0,0-.89,3.64,3.15,3.15,0,0,0,2.67,3.48c.75.16,1.39.27,1.9.33s.77.43.77,1.13a1,1,0,0,1-1.13,1.13c-.38,0-1.09,0-2.15-.16s-2.52-.16-4.41-.16a34.63,34.63,0,0,0-4.61.24q-1.7.24-2.1.24c-.49,0-.73-.29-.73-.89a1.46,1.46,0,0,1,.89-1.45c.59-.27,1.4-.68,2.43-1.22a7.42,7.42,0,0,0,2.59-2.55,37.84,37.84,0,0,0,2.59-4.73l19.17-39.89c.11-.27.23-.57.37-.89a.82.82,0,0,1,.85-.49c.37,0,.59.14.64.41s.14.67.25,1.21Zm-21.2-16.59H216l-3.08-21Z" transform="translate(-6.03 -4.64)"/><path class="cls-4" d="M252.24,59.28q5.73-9.8,11.08-19.71t10.52-20.12c.75.05,1.55.08,2.39.11s1.71,0,2.63,0a20.36,20.36,0,0,0,2.22-.12c.73-.07,1.47-.11,2.23-.11s1.29.25,1.29.75-.3.83-.89.86-1.29.09-2.1.18c-1.51.17-2.46,1.22-2.84,3.17L271.33,64a13.53,13.53,0,0,0-.24,2.19c0,1.73.78,2.6,2.34,2.6a4.7,4.7,0,0,1,1.18.12c.29.08.44.36.44.85a.82.82,0,0,1-.32.61,1.44,1.44,0,0,1-1,.28,18.19,18.19,0,0,1-2.19-.2,32.35,32.35,0,0,0-4-.2,33.65,33.65,0,0,0-4.57.24q-1.67.24-2.07.24a.93.93,0,0,1-1.05-1.05c0-.65.27-1,.81-1a7.08,7.08,0,0,0,1.94-.33A3.19,3.19,0,0,0,265,66.66a24.05,24.05,0,0,0,1.09-3.85l7.93-40L250.05,68.57c-.48,1-1,1.46-1.54,1.46-.32,0-.52-.18-.6-.56a14.57,14.57,0,0,1-.21-1.71l-1.86-42.94q-6,18.51-8.57,28.53t-2.59,11.49a3.51,3.51,0,0,0,.68,2.43,4.22,4.22,0,0,0,1.54,1.06c.57.22,1.08.39,1.54.53a.83.83,0,0,1,.69.85,1,1,0,0,1-.37.81,1.21,1.21,0,0,1-.85.33,11,11,0,0,1-2.26-.33,18.55,18.55,0,0,0-3.8-.32,19.5,19.5,0,0,0-3.36.24,12.42,12.42,0,0,1-2,.24c-.71,0-1.06-.27-1.06-.81a1.06,1.06,0,0,1,1-1.09q1-.19,2.43-.6a4.82,4.82,0,0,0,1.58-.69,4.35,4.35,0,0,0,1.09-1.22,8.6,8.6,0,0,0,.89-2c.27-.83.59-1.87,1-3.11l10.28-35.28a4.09,4.09,0,0,0,.24-1.05,12.84,12.84,0,0,0,.08-1.46,1.85,1.85,0,0,0-.65-1.7,3.88,3.88,0,0,0-1.41-.53l-1.42-.24a.7.7,0,0,1-.64-.77c0-.59.4-.89,1.21-.89.21,0,.94.05,2.18.15s3.16.15,5.75.15c1.08,0,1.68.15,1.82.45a6,6,0,0,1,.28,1.76Z" transform="translate(-6.03 -4.64)"/><path class="cls-4" d="M314.7,65.18a4.36,4.36,0,0,0,.81,2.19,4.43,4.43,0,0,0,1.17,1c.41.21.76.39,1.05.52a.78.78,0,0,1,.45.77c0,.65-.46,1-1.38,1a12.26,12.26,0,0,1-1.9-.2,17.18,17.18,0,0,0-2.79-.2,21.92,21.92,0,0,0-3.28.24,21.11,21.11,0,0,1-3.19.24c-1,0-1.46-.32-1.46-1A1.12,1.12,0,0,1,305,68.5c.51-.16,1.06-.31,1.66-.45a6.08,6.08,0,0,0,1.66-.64,2,2,0,0,0,.77-1.9c0-.27,0-.56,0-.85s-.07-.61-.13-.93L306.93,51H292.45l-4.21,9.71a10.18,10.18,0,0,0-.89,3.64A3.15,3.15,0,0,0,290,67.85c.76.16,1.39.27,1.9.33s.77.43.77,1.13a1,1,0,0,1-1.13,1.13c-.38,0-1.09,0-2.15-.16s-2.52-.16-4.41-.16a34.73,34.73,0,0,0-4.61.24q-1.69.24-2.1.24c-.49,0-.73-.29-.73-.89a1.46,1.46,0,0,1,.89-1.45c.6-.27,1.4-.68,2.43-1.22a7.34,7.34,0,0,0,2.59-2.55,37.84,37.84,0,0,0,2.59-4.73l19.17-39.89c.11-.27.23-.57.37-.89a.82.82,0,0,1,.85-.49c.37,0,.59.14.64.41s.14.67.25,1.21ZM293.5,48.59h13.11l-3.08-21Z" transform="translate(-6.03 -4.64)"/><path class="cls-3" d="M25.2,62.24c-.17.69-.3,1.33-.41,1.92a9.18,9.18,0,0,0-.16,1.69,2.27,2.27,0,0,0,1.78,2.33,4.4,4.4,0,0,0,1.13.16,7.63,7.63,0,0,1,1.14.08,2.15,2.15,0,0,1,.8.28.9.9,0,0,1-.08,1.46,2.1,2.1,0,0,1-1.21.28,20.53,20.53,0,0,1-2.27-.24A36.19,36.19,0,0,0,21.15,70a31.54,31.54,0,0,0-4.29.24,19.91,19.91,0,0,1-2.51.24c-.64,0-1-.29-1-.88s.23-.83.69-.89a13.12,13.12,0,0,0,1.66-.32,5.46,5.46,0,0,0,1.9-.92,4.67,4.67,0,0,0,1.42-2.7l9-37.06a11.93,11.93,0,0,0,.32-1.81c0-.56.08-1.06.08-1.49a3,3,0,0,0-.56-2.09,2.39,2.39,0,0,0-1.3-.68c-.48-.08-.92-.16-1.29-.24s-.57-.36-.57-.85.51-.88,1.54-.88c.27,0,.94.06,2,.2a41,41,0,0,0,4.61.2c1.73,0,3.37-.05,4.94-.16s3.07-.16,4.53-.16q5.26,0,8,2.82c1.83,1.87,2.75,4.61,2.75,8.2a17.65,17.65,0,0,1-1.37,7,14.68,14.68,0,0,1-4.13,5.47,19.47,19.47,0,0,1-6.76,3.54A30.93,30.93,0,0,1,31.67,48H30.13c-.48,0-1,0-1.54-.08Zm5.38-16.19c.51,0,1,0,1.41,0a15.8,15.8,0,0,0,6.52-1.33,15.55,15.55,0,0,0,5.05-3.58,16.56,16.56,0,0,0,3.28-5.1,15.63,15.63,0,0,0,1.17-6c0-3.21-.87-5.42-2.63-6.63s-4.32-1.81-7.72-1.81c-.49,0-1,0-1.58.08s-1.17.14-1.82.24l-5.34,24Z" transform="translate(-6.03 -4.64)"/><path class="cls-3" d="M78.6,50.67l3,10.57a26.76,26.76,0,0,0,1.46,4.11,5.19,5.19,0,0,0,1.86,2.26,5.27,5.27,0,0,0,1.09.61l1,.36a2.4,2.4,0,0,1,.73.4.82.82,0,0,1,.28.65c0,.6-.37.89-1.13.89a5.59,5.59,0,0,1-1.21-.16,7.8,7.8,0,0,0-1.7-.16,7.54,7.54,0,0,0-1.38.12,7,7,0,0,1-1.29.12c-1.08,0-1.86-.75-2.35-2.26L73.74,51.83a12.52,12.52,0,0,0-1.45-3.28,2.51,2.51,0,0,0-2.47-1,1.73,1.73,0,0,1-.37,0L66.62,48l-3.4,14.4c-.16.7-.29,1.36-.4,2A9.63,9.63,0,0,0,62.66,66a2.27,2.27,0,0,0,.56,1.82,3.21,3.21,0,0,0,1.26.61c.46.11.87.21,1.25.32a.81.81,0,0,1,.57.89c0,.54-.22.81-.65.81A15.78,15.78,0,0,1,64,70.28a29.64,29.64,0,0,0-3.6-.16,47.15,47.15,0,0,0-5.38.24c-1.32.16-2.2.24-2.63.24-.65,0-1-.29-1-.88a.81.81,0,0,1,.69-.93l1.66-.32a4.15,4.15,0,0,0,3.31-3.59l9-37.19a11.93,11.93,0,0,0,.32-1.81c.05-.56.08-1.06.08-1.49a3,3,0,0,0-.57-2.1,2.34,2.34,0,0,0-1.29-.69q-.73-.12-1.29-.24c-.38-.08-.57-.36-.57-.85,0-.64.51-1,1.54-1,.21,0,1.06.05,2.54.16s3.71.16,6.68.16c1.19,0,2.35,0,3.48-.08s2.27-.08,3.4-.08q5.25,0,8,2.58t2.75,7.5q0,10.32-14.4,16.37A36.26,36.26,0,0,1,78.6,50.67Zm-3.81-6a17.63,17.63,0,0,0,5.91-3.4,15.31,15.31,0,0,0,3.76-5.05,14.51,14.51,0,0,0,1.34-6.17c0-3.26-.82-5.47-2.47-6.65s-4.17-1.76-7.56-1.76c-.44,0-.93,0-1.5.08s-1.17.13-1.82.24L67,46A24.43,24.43,0,0,0,74.79,44.68Z" transform="translate(-6.03 -4.64)"/><path class="cls-3" d="M128.2,29.82a5.4,5.4,0,0,1-.49,1.3.93.93,0,0,1-1.5,0,1.68,1.68,0,0,1-.28-1c0-.6,0-1.08,0-1.46s0-.62,0-.73q0-3.39-1.86-4.85t-5.74-1.46c-1.24,0-2.47,0-3.68.08s-2.45.14-3.69.25l-4.53,20.55H113a15,15,0,0,0,3.6-.37,5,5,0,0,0,2.54-1.66,9.16,9.16,0,0,0,1.22-1.66c.32-.56.59-1.09.81-1.57a6.59,6.59,0,0,1,.64-1.18,1,1,0,0,1,.81-.44c.44,0,.65.35.65,1.05a16,16,0,0,1-.85,2.83c-.56,1.62-1.23,4-2,7.2q-.81,3.41-1.05,5.1c-.16,1.13-.57,1.7-1.22,1.7s-1-.43-1-1.29c0-.38,0-.73,0-1.06s0-.62,0-.89v-.4c0-1,0-1.79-.08-2.47a3.4,3.4,0,0,0-.52-1.66,2.71,2.71,0,0,0-1.42-1,9.3,9.3,0,0,0-2.75-.32h-6.72L101.9,59.84c-.27,1.24-.5,2.31-.69,3.2a11,11,0,0,0-.28,2.22,3.14,3.14,0,0,0,.85,2.51,4.1,4.1,0,0,0,2.71.73h6A11.23,11.23,0,0,0,119.13,65,12.61,12.61,0,0,0,121,62.63c.4-.73.72-1.36,1-1.9a12.89,12.89,0,0,1,.64-1.29.92.92,0,0,1,.85-.49.82.82,0,0,1,.53.28,1,1,0,0,1,.28.77,6.88,6.88,0,0,1-.24,1.3l-1.7,6.23q-.41,1.53-.69,2.43c-.19.59-.52.89-1,.89-.21,0-1.23-.11-3-.33a91,91,0,0,0-9.19-.32q-9.06,0-13.39.28c-2.88.19-4.49.28-4.81.28q-1.38,0-1.38-1.05a.91.91,0,0,1,.37-.81,2.22,2.22,0,0,1,1-.32c.4,0,.85-.09,1.33-.12a4.77,4.77,0,0,0,1.38-.28,2.8,2.8,0,0,0,1.74-1.78,38.74,38.74,0,0,0,1.17-3.89l8.42-34.95a17.78,17.78,0,0,0,.48-3.81,2,2,0,0,0-.56-1.7,3.18,3.18,0,0,0-1.3-.52q-.74-.12-1.29-.24c-.38-.08-.57-.37-.57-.85,0-.7.43-1.06,1.29-1.06.27,0,1.69.06,4.25.17s6.6.16,12.1.16q4.84,0,7.4-.08c1.7-.06,2.68-.08,3-.08a3.35,3.35,0,0,1,1.29.16c.22.11.32.46.32,1.05a10,10,0,0,1-.32,1.54Z" transform="translate(-6.03 -4.64)"/><path class="cls-3" d="M159,29.26c-.16,1-.51,1.45-1.06,1.45s-.73-.48-.73-1.45V27.15a7.47,7.47,0,0,0-1.8-5.46,6.9,6.9,0,0,0-5.14-1.82,8.66,8.66,0,0,0-3.63.77,9.68,9.68,0,0,0-2.94,2.09,10.16,10.16,0,0,0-2,3.11,10,10,0,0,0-.74,3.87,9.13,9.13,0,0,0,.73,3.75,14.87,14.87,0,0,0,2.18,3.43l4.78,5.65,2.51,2.82a19.88,19.88,0,0,1,2.14,2.9,15.19,15.19,0,0,1,1.5,3.35,14.52,14.52,0,0,1,.56,4.24,15.93,15.93,0,0,1-1.25,6.33,16.42,16.42,0,0,1-3.4,5.12,16.19,16.19,0,0,1-5,3.43,14.75,14.75,0,0,1-6,1.25,15.9,15.9,0,0,1-4.53-.72,20.72,20.72,0,0,1-4.45-1.87,2.77,2.77,0,0,1-1.1-1,2.84,2.84,0,0,1-.2-1v-.57l.24-7a5,5,0,0,1,.17-1.42c.1-.35.29-.52.56-.52a.72.72,0,0,1,.69.36,3.71,3.71,0,0,1,.32,1.13c.08.52.17,1.15.25,1.91s.23,1.64.44,2.67a7.73,7.73,0,0,0,2.71,4.33,8.18,8.18,0,0,0,5.46,1.9,8.38,8.38,0,0,0,3.85-.93,9.71,9.71,0,0,0,3.11-2.51,12.54,12.54,0,0,0,2.07-3.75,13.85,13.85,0,0,0,.76-4.61,10.21,10.21,0,0,0-1.41-5.45,46.46,46.46,0,0,0-3.52-4.89L141.14,43q-4.44-5.25-4.45-10.26a16.46,16.46,0,0,1,1.1-6.14,13.26,13.26,0,0,1,7.78-7.63,16.67,16.67,0,0,1,5.87-1,15.93,15.93,0,0,1,3.38.35,13.82,13.82,0,0,1,2.81.93,6.57,6.57,0,0,1,1.92,1.3,2.25,2.25,0,0,1,.69,1.54v.33Z" transform="translate(-6.03 -4.64)"/><path class="cls-3" d="M194.06,19.71a7.45,7.45,0,0,0,3-.45,3.68,3.68,0,0,0,1.42-1,5,5,0,0,0,.65-1,.63.63,0,0,1,.6-.44q.57,0,.57.72v.57a2.55,2.55,0,0,1-.16.81l-2.75,10.52c-.16.65-.49,1-1,1a.72.72,0,0,1-.65-.41,1.84,1.84,0,0,1-.24-1,9.31,9.31,0,0,1,.08-1.29,11.2,11.2,0,0,0,.08-1.3c0-1.88-.27-3.15-.81-3.8s-1.62-1-3.24-1h-5.26a1.25,1.25,0,0,0-1.13.49,4.86,4.86,0,0,0-.57,1.37L174.56,64.05a11.17,11.17,0,0,0-.41,2.51,1.28,1.28,0,0,0,.69,1.29,6.32,6.32,0,0,0,1.54.49c.57.11,1.08.23,1.54.36a.89.89,0,0,1,.69.93c0,.65-.52,1-1.54,1a11.87,11.87,0,0,1-1.66-.2,19.72,19.72,0,0,0-3.12-.2,47.19,47.19,0,0,0-5.82.28,27.63,27.63,0,0,1-3,.28c-.75,0-1.13-.32-1.13-1s.3-1,.89-1a10.27,10.27,0,0,0,2.35-.32,4,4,0,0,0,2-1,6.11,6.11,0,0,0,1.13-2.55l10.52-41.1a5.26,5.26,0,0,0,.25-1.46c0-.49-.52-.73-1.54-.73h-3.89a11.18,11.18,0,0,0-4.2.69A7.11,7.11,0,0,0,166.79,25a10.64,10.64,0,0,0-1.13,1.86q-.41.89-.69,1.62a5.27,5.27,0,0,1-.61,1.17,1,1,0,0,1-.8.45c-.6,0-.89-.33-.89-1a5.93,5.93,0,0,1,.32-1.37l3.07-10.2a3.45,3.45,0,0,1,.37-1,.66.66,0,0,1,.6-.32.53.53,0,0,1,.57.53c.05.35.14.75.24,1.21a2.36,2.36,0,0,0,.73,1.21,3.16,3.16,0,0,0,2.11.53Z" transform="translate(-6.03 -4.64)"/><path class="cls-3" d="M224.08,65.18a4.36,4.36,0,0,0,.81,2.19,4.28,4.28,0,0,0,1.17,1c.41.21.76.39,1.05.52a.78.78,0,0,1,.45.77c0,.65-.46,1-1.38,1a12.26,12.26,0,0,1-1.9-.2,17.18,17.18,0,0,0-2.79-.2,21.82,21.82,0,0,0-3.28.24,21.21,21.21,0,0,1-3.19.24c-1,0-1.46-.32-1.46-1a1.12,1.12,0,0,1,.77-1.21c.51-.16,1.06-.31,1.66-.45a6.08,6.08,0,0,0,1.66-.64,2,2,0,0,0,.76-1.9,8.32,8.32,0,0,0,0-.85,7.9,7.9,0,0,0-.12-.93L216.31,51H201.83l-4.21,9.71a10.18,10.18,0,0,0-.89,3.64,3.15,3.15,0,0,0,2.67,3.48c.75.16,1.39.27,1.9.33s.77.43.77,1.13a1,1,0,0,1-1.13,1.13c-.38,0-1.09,0-2.15-.16s-2.52-.16-4.41-.16a34.63,34.63,0,0,0-4.61.24q-1.7.24-2.1.24c-.49,0-.73-.29-.73-.89a1.46,1.46,0,0,1,.89-1.45c.59-.27,1.4-.68,2.43-1.22a7.42,7.42,0,0,0,2.59-2.55,37.84,37.84,0,0,0,2.59-4.73l19.17-39.89c.11-.27.23-.57.37-.89a.82.82,0,0,1,.85-.49c.37,0,.59.14.64.41s.14.67.25,1.21Zm-21.2-16.59H216l-3.08-21Z" transform="translate(-6.03 -4.64)"/><path class="cls-3" d="M252.24,59.28q5.73-9.8,11.08-19.71t10.52-20.12c.75.05,1.55.08,2.39.11s1.71,0,2.63,0a20.36,20.36,0,0,0,2.22-.12c.73-.07,1.47-.11,2.23-.11s1.29.25,1.29.75-.3.83-.89.86-1.29.09-2.1.18c-1.51.17-2.46,1.22-2.84,3.17L271.33,64a13.53,13.53,0,0,0-.24,2.19c0,1.73.78,2.6,2.34,2.6a4.7,4.7,0,0,1,1.18.12c.29.08.44.36.44.85a.82.82,0,0,1-.32.61,1.44,1.44,0,0,1-1,.28,18.19,18.19,0,0,1-2.19-.2,32.35,32.35,0,0,0-4-.2,33.65,33.65,0,0,0-4.57.24q-1.67.24-2.07.24a.93.93,0,0,1-1.05-1.05c0-.65.27-1,.81-1a7.08,7.08,0,0,0,1.94-.33A3.19,3.19,0,0,0,265,66.66a24.05,24.05,0,0,0,1.09-3.85l7.93-40L250.05,68.57c-.48,1-1,1.46-1.54,1.46-.32,0-.52-.18-.6-.56a14.57,14.57,0,0,1-.21-1.71l-1.86-42.94q-6,18.51-8.57,28.53t-2.59,11.49a3.51,3.51,0,0,0,.68,2.43,4.22,4.22,0,0,0,1.54,1.06c.57.22,1.08.39,1.54.53a.83.83,0,0,1,.69.85,1,1,0,0,1-.37.81,1.21,1.21,0,0,1-.85.33,11,11,0,0,1-2.26-.33,18.55,18.55,0,0,0-3.8-.32,19.5,19.5,0,0,0-3.36.24,12.42,12.42,0,0,1-2,.24c-.71,0-1.06-.27-1.06-.81a1.06,1.06,0,0,1,1-1.09q1-.19,2.43-.6a4.82,4.82,0,0,0,1.58-.69,4.35,4.35,0,0,0,1.09-1.22,8.6,8.6,0,0,0,.89-2c.27-.83.59-1.87,1-3.11l10.28-35.28a4.09,4.09,0,0,0,.24-1.05,12.84,12.84,0,0,0,.08-1.46,1.85,1.85,0,0,0-.65-1.7,3.88,3.88,0,0,0-1.41-.53l-1.42-.24a.7.7,0,0,1-.64-.77c0-.59.4-.89,1.21-.89.21,0,.94.05,2.18.15s3.16.15,5.75.15c1.08,0,1.68.15,1.82.45a6,6,0,0,1,.28,1.76Z" transform="translate(-6.03 -4.64)"/><path class="cls-3" d="M314.7,65.18a4.36,4.36,0,0,0,.81,2.19,4.43,4.43,0,0,0,1.17,1c.41.21.76.39,1.05.52a.78.78,0,0,1,.45.77c0,.65-.46,1-1.38,1a12.26,12.26,0,0,1-1.9-.2,17.18,17.18,0,0,0-2.79-.2,21.92,21.92,0,0,0-3.28.24,21.11,21.11,0,0,1-3.19.24c-1,0-1.46-.32-1.46-1A1.12,1.12,0,0,1,305,68.5c.51-.16,1.06-.31,1.66-.45a6.08,6.08,0,0,0,1.66-.64,2,2,0,0,0,.77-1.9c0-.27,0-.56,0-.85s-.07-.61-.13-.93L306.93,51H292.45l-4.21,9.71a10.18,10.18,0,0,0-.89,3.64A3.15,3.15,0,0,0,290,67.85c.76.16,1.39.27,1.9.33s.77.43.77,1.13a1,1,0,0,1-1.13,1.13c-.38,0-1.09,0-2.15-.16s-2.52-.16-4.41-.16a34.73,34.73,0,0,0-4.61.24q-1.69.24-2.1.24c-.49,0-.73-.29-.73-.89a1.46,1.46,0,0,1,.89-1.45c.6-.27,1.4-.68,2.43-1.22a7.34,7.34,0,0,0,2.59-2.55,37.84,37.84,0,0,0,2.59-4.73l19.17-39.89c.11-.27.23-.57.37-.89a.82.82,0,0,1,.85-.49c.37,0,.59.14.64.41s.14.67.25,1.21ZM293.5,48.59h13.11l-3.08-21Z" transform="translate(-6.03 -4.64)"/><path class="cls-2" d="M18,77.13,15.59,87.7H14.47l2.44-10.57H15.24a2,2,0,0,0-.67.09,1.2,1.2,0,0,0-.42.23.88.88,0,0,0-.24.34,2.67,2.67,0,0,0-.13.4l-.72-.37a2.48,2.48,0,0,1,.23-.63,1.66,1.66,0,0,1,.38-.53,1.61,1.61,0,0,1,.61-.37,2.62,2.62,0,0,1,.9-.14H22l-.23,1Z" transform="translate(-6.03 -4.64)"/><path class="cls-2" d="M25.78,87.73a1.58,1.58,0,0,1-.79-.16.93.93,0,0,1-.39-.42,1.35,1.35,0,0,1-.12-.59,5.6,5.6,0,0,1,.05-.69,3.89,3.89,0,0,1-1.46,1.52,4,4,0,0,1-2,.5,2.31,2.31,0,0,1-2-.78A2.46,2.46,0,0,1,18.87,85l.77-3.32c.13-.57.11-.94,0-1.12a.92.92,0,0,0-.72-.26l.58-.85a2.33,2.33,0,0,1,.68.09,1,1,0,0,1,.48.28,1.1,1.1,0,0,1,.22.55,2.68,2.68,0,0,1-.06.86L20,84.51a3.64,3.64,0,0,0-.11,1,1.66,1.66,0,0,0,.23.79,1.27,1.27,0,0,0,.57.53,2.07,2.07,0,0,0,1,.2,2.87,2.87,0,0,0,1.18-.25,3.57,3.57,0,0,0,1.65-1.61A4.9,4.9,0,0,0,24.91,84L26,79.44h1l-1.43,6.19a2.1,2.1,0,0,0-.06.66.74.74,0,0,0,.14.37.59.59,0,0,0,.3.17,2.48,2.48,0,0,0,.41,0Z" transform="translate(-6.03 -4.64)"/><path class="cls-2" d="M33.9,85.44a2.67,2.67,0,0,1-.57,1.14,3.27,3.27,0,0,1-.93.77,4.21,4.21,0,0,1-1.16.41,5.6,5.6,0,0,1-1.21.13,5.47,5.47,0,0,1-1.42-.17,2.36,2.36,0,0,1-1-.54,1.77,1.77,0,0,1-.51-.93,3.19,3.19,0,0,1,.05-1.36h1a1.77,1.77,0,0,0,.31,1.73,2.41,2.41,0,0,0,1.76.55,3.92,3.92,0,0,0,.8-.09,3.17,3.17,0,0,0,.8-.28,2.3,2.3,0,0,0,.66-.5,1.5,1.5,0,0,0,.39-.75,1.19,1.19,0,0,0,0-.74,1.1,1.1,0,0,0-.44-.47,3.08,3.08,0,0,0-.75-.3l-.94-.24c-.38-.09-.74-.19-1.08-.29a2.53,2.53,0,0,1-.86-.39,1.38,1.38,0,0,1-.51-.64,1.75,1.75,0,0,1,0-1,2.32,2.32,0,0,1,.4-.86,2.92,2.92,0,0,1,.77-.71,4.19,4.19,0,0,1,1.07-.48,5.21,5.21,0,0,1,2.6,0,2.28,2.28,0,0,1,.92.46,1.65,1.65,0,0,1,.5.82,2.53,2.53,0,0,1,0,1.22h-1a1.45,1.45,0,0,0-.31-1.5,2.2,2.2,0,0,0-1.51-.46,2.89,2.89,0,0,0-1.14.19,2.57,2.57,0,0,0-.74.42,1.47,1.47,0,0,0-.4.49,2,2,0,0,0-.15.38.86.86,0,0,0,.13.83,1.89,1.89,0,0,0,.7.48,4.47,4.47,0,0,0,.94.27q.51.1.87.21l.84.28a2.43,2.43,0,0,1,.71.4,1.45,1.45,0,0,1,.43.63A1.85,1.85,0,0,1,33.9,85.44Z" transform="translate(-6.03 -4.64)"/><path class="cls-2" d="M48.43,83.71a5.54,5.54,0,0,1-.64,1.62,5.17,5.17,0,0,1-1.07,1.33,4.94,4.94,0,0,1-1.43.9,4.35,4.35,0,0,1-1.69.33A3.26,3.26,0,0,1,42,87.53a2,2,0,0,1-.94-1.11l-.58,2.51a1.61,1.61,0,0,0,0,.93c.1.22.36.32.8.31L40.7,91a1.47,1.47,0,0,1-1.18-.42,1.55,1.55,0,0,1-.12-1.36l1.78-7.75a1.6,1.6,0,0,0,0-.93c-.1-.22-.36-.32-.79-.31l.58-.86a1.39,1.39,0,0,1,1,.32,1.17,1.17,0,0,1,.3.94,3.9,3.9,0,0,1,1.47-1.08,4.36,4.36,0,0,1,1.69-.36,3.56,3.56,0,0,1,1.65.35,2.61,2.61,0,0,1,1,1A3.21,3.21,0,0,1,48.56,82,5.56,5.56,0,0,1,48.43,83.71Zm-1,0a4.78,4.78,0,0,0,.14-1.42,2.84,2.84,0,0,0-.29-1.17,1.88,1.88,0,0,0-.8-.78,2.8,2.8,0,0,0-1.34-.29,3,3,0,0,0-.9.15,4,4,0,0,0-.92.42,2.88,2.88,0,0,0-.78.65,1.82,1.82,0,0,0-.44.83l-.6,2.66a1.81,1.81,0,0,0,0,1,1.56,1.56,0,0,0,.44.73,1.92,1.92,0,0,0,.76.45,3,3,0,0,0,1,.15A3.37,3.37,0,0,0,45,86.81a3.79,3.79,0,0,0,1.11-.72A4.37,4.37,0,0,0,46.91,85,5.36,5.36,0,0,0,47.4,83.71Z" transform="translate(-6.03 -4.64)"/><path class="cls-2" d="M54.57,80.11a2.93,2.93,0,0,0-1.2.25,3.46,3.46,0,0,0-.94.66,3.93,3.93,0,0,0-.69,1,4.8,4.8,0,0,0-.43,1.13l-1.07,4.6h-1l1.43-6.19a1.87,1.87,0,0,0,.06-.67.7.7,0,0,0-.14-.37.5.5,0,0,0-.31-.17,1.7,1.7,0,0,0-.4,0l.58-.85a1.55,1.55,0,0,1,.79.16.91.91,0,0,1,.39.41,1.41,1.41,0,0,1,.12.59,5.31,5.31,0,0,1,0,.68,4.13,4.13,0,0,1,1.48-1.51,3.89,3.89,0,0,1,1.94-.49h.34Z" transform="translate(-6.03 -4.64)"/><path class="cls-2" d="M61.77,83.56a6.66,6.66,0,0,1-.62,1.64,6,6,0,0,1-1.06,1.38,4.76,4.76,0,0,1-1.45,1,4.54,4.54,0,0,1-1.79.35,3.46,3.46,0,0,1-1.62-.35,2.47,2.47,0,0,1-1-1,3.11,3.11,0,0,1-.42-1.38,5.45,5.45,0,0,1,.13-1.64,6.42,6.42,0,0,1,.61-1.63,6.18,6.18,0,0,1,1.06-1.38,5.14,5.14,0,0,1,1.46-1,4.37,4.37,0,0,1,1.79-.36,3.33,3.33,0,0,1,1.63.36,2.57,2.57,0,0,1,1,1,3.19,3.19,0,0,1,.42,1.38A5.41,5.41,0,0,1,61.77,83.56Zm-1,0a4.78,4.78,0,0,0,.12-1.29,3,3,0,0,0-.28-1.12,2,2,0,0,0-.71-.8,2.19,2.19,0,0,0-1.19-.3,3,3,0,0,0-1.36.3,3.94,3.94,0,0,0-1.09.8,4.27,4.27,0,0,0-.79,1.12A5.28,5.28,0,0,0,55,83.56a4.52,4.52,0,0,0-.13,1.3A2.84,2.84,0,0,0,55.11,86a1.94,1.94,0,0,0,.73.8,2.25,2.25,0,0,0,1.22.29,3,3,0,0,0,1.33-.29,4,4,0,0,0,1.08-.8,4.71,4.71,0,0,0,.79-1.12A5.23,5.23,0,0,0,60.74,83.56Z" transform="translate(-6.03 -4.64)"/><path class="cls-2" d="M69.37,87.8a4.91,4.91,0,0,1-.53,1.42A3.85,3.85,0,0,1,66.63,91a5.61,5.61,0,0,1-1.72.25,5.3,5.3,0,0,1-1.22-.14,2.53,2.53,0,0,1-1-.45,1.76,1.76,0,0,1-.59-.82,2.28,2.28,0,0,1-.06-1.24h1a1.91,1.91,0,0,0,0,.87,1.46,1.46,0,0,0,.39.61,1.62,1.62,0,0,0,.65.35,3.37,3.37,0,0,0,.86.11,3.2,3.2,0,0,0,2.16-.72,3.58,3.58,0,0,0,1.13-2L68.76,86a3.72,3.72,0,0,1-1.43,1.46,3.94,3.94,0,0,1-1.92.48,2.35,2.35,0,0,1-2-.78A2.45,2.45,0,0,1,63.17,85l.8-3.46a2.14,2.14,0,0,0,.06-.67.7.7,0,0,0-.14-.37.49.49,0,0,0-.31-.16,1.75,1.75,0,0,0-.4,0l.58-.86a2.59,2.59,0,0,1,.63.07,1,1,0,0,1,.49.27,1,1,0,0,1,.26.55,2.23,2.23,0,0,1-.07.89l-.78,3.4a3.2,3.2,0,0,0-.1,1,1.56,1.56,0,0,0,.24.77,1.38,1.38,0,0,0,.59.5A2.16,2.16,0,0,0,66,87a2.9,2.9,0,0,0,1.18-.25,3.57,3.57,0,0,0,1.65-1.61A4.78,4.78,0,0,0,69.21,84l1.06-4.6h1l-1.93,8.37Z" transform="translate(-6.03 -4.64)"/><path class="cls-2" d="M78.53,86.08a4.84,4.84,0,0,1-1,1,4.47,4.47,0,0,1-2.63.83,3.31,3.31,0,0,1-1.54-.33,2.53,2.53,0,0,1-1-.9,3,3,0,0,1-.46-1.33,4.77,4.77,0,0,1,.1-1.62A6.79,6.79,0,0,1,72.66,82a5.74,5.74,0,0,1,1.1-1.42,5.06,5.06,0,0,1,1.48-1,4.72,4.72,0,0,1,1.82-.35,3.93,3.93,0,0,1,1.21.19,2.5,2.5,0,0,1,.92.56,2.28,2.28,0,0,1,.54.9,2.57,2.57,0,0,1,.08,1.22l-6.88,2.31a3.91,3.91,0,0,0,0,1,2.33,2.33,0,0,0,.36.85,1.83,1.83,0,0,0,.71.57,2.6,2.6,0,0,0,1.06.2,3.16,3.16,0,0,0,1-.16,3.79,3.79,0,0,0,.89-.47,3.51,3.51,0,0,0,.72-.72,3.07,3.07,0,0,0,.47-1h1A4.44,4.44,0,0,1,78.53,86.08Zm-.26-5.57a2,2,0,0,0-1.39-.46,3.29,3.29,0,0,0-1.39.28,3.92,3.92,0,0,0-1.09.75,4.87,4.87,0,0,0-.8,1.09,5.59,5.59,0,0,0-.49,1.31l0,.24,5.74-1.94A1.63,1.63,0,0,0,78.27,80.51Z" transform="translate(-6.03 -4.64)"/><path class="cls-2" d="M87.4,86.08a4.84,4.84,0,0,1-1,1,4.47,4.47,0,0,1-2.63.83,3.31,3.31,0,0,1-1.54-.33,2.53,2.53,0,0,1-1-.9,3,3,0,0,1-.46-1.33,4.77,4.77,0,0,1,.1-1.62A6.79,6.79,0,0,1,81.53,82a5.74,5.74,0,0,1,1.1-1.42,5.06,5.06,0,0,1,1.48-1,4.71,4.71,0,0,1,1.81-.35,4,4,0,0,1,1.22.19,2.58,2.58,0,0,1,.92.56,2.28,2.28,0,0,1,.54.9,2.57,2.57,0,0,1,.08,1.22h-1a1.88,1.88,0,0,0-.45-1.51,2,2,0,0,0-1.49-.54,3.34,3.34,0,0,0-1.44.3,4.07,4.07,0,0,0-1.11.81,4.57,4.57,0,0,0-.8,1.17,5.51,5.51,0,0,0-.48,1.38A4.6,4.6,0,0,0,81.8,85a2.61,2.61,0,0,0,.28,1.08,1.74,1.74,0,0,0,.71.74,2.26,2.26,0,0,0,1.19.28,3.05,3.05,0,0,0,1-.16,3.44,3.44,0,0,0,.89-.47,3.32,3.32,0,0,0,.73-.72,3.07,3.07,0,0,0,.47-1h1A4.44,4.44,0,0,1,87.4,86.08Z" transform="translate(-6.03 -4.64)"/><path class="cls-2" d="M90.82,87.73a2.62,2.62,0,0,1-.64-.07,1.07,1.07,0,0,1-.49-.27,1.12,1.12,0,0,1-.25-.55A2.19,2.19,0,0,1,89.5,86l1.33-5.79H90l.17-.72H91l.5-2,1.1-.37L92,79.44h.86l-.16.72h-.86l-1.27,5.47a1.92,1.92,0,0,0-.07.67.71.71,0,0,0,.16.37.49.49,0,0,0,.3.16,2.45,2.45,0,0,0,.39,0Z" transform="translate(-6.03 -4.64)"/><path class="cls-2" d="M100.63,83.56A6.29,6.29,0,0,1,100,85.2,5.76,5.76,0,0,1,99,86.58a4.76,4.76,0,0,1-1.45,1,4.54,4.54,0,0,1-1.79.35,3.46,3.46,0,0,1-1.62-.35,2.47,2.47,0,0,1-1-1,3.11,3.11,0,0,1-.42-1.38,5.45,5.45,0,0,1,.13-1.64,6.09,6.09,0,0,1,.62-1.63,5.64,5.64,0,0,1,1.06-1.38,5,5,0,0,1,1.45-1,4.37,4.37,0,0,1,1.79-.36,3.31,3.31,0,0,1,1.63.36,2.57,2.57,0,0,1,1,1,3.19,3.19,0,0,1,.42,1.38A5.41,5.41,0,0,1,100.63,83.56Zm-1,0a5.2,5.2,0,0,0,.11-1.29,2.8,2.8,0,0,0-.27-1.12,2,2,0,0,0-.72-.8,2.17,2.17,0,0,0-1.19-.3,3,3,0,0,0-1.36.3,4.09,4.09,0,0,0-1.09.8,4.52,4.52,0,0,0-.79,1.12,5.28,5.28,0,0,0-.47,1.29,4.52,4.52,0,0,0-.13,1.3A2.84,2.84,0,0,0,94,86a1.91,1.91,0,0,0,.72.8,2.25,2.25,0,0,0,1.22.29,3,3,0,0,0,1.33-.29,3.84,3.84,0,0,0,1.08-.8,4.44,4.44,0,0,0,.79-1.12A5.69,5.69,0,0,0,99.61,83.56Z" transform="translate(-6.03 -4.64)"/><path class="cls-2" d="M108.2,85.44a2.55,2.55,0,0,1-.56,1.14,3.31,3.31,0,0,1-.94.77,4.15,4.15,0,0,1-1.15.41,5.67,5.67,0,0,1-1.21.13,5.47,5.47,0,0,1-1.42-.17,2.4,2.4,0,0,1-1-.54,1.76,1.76,0,0,1-.5-.93,3,3,0,0,1,0-1.36h1a1.79,1.79,0,0,0,.3,1.73,2.45,2.45,0,0,0,1.77.55,3.75,3.75,0,0,0,.79-.09,3.24,3.24,0,0,0,.81-.28,2.3,2.3,0,0,0,.66-.5,1.59,1.59,0,0,0,.39-.75,1.19,1.19,0,0,0,0-.74,1.07,1.07,0,0,0-.45-.47A3,3,0,0,0,106,84L105,83.8c-.38-.09-.75-.19-1.08-.29a2.68,2.68,0,0,1-.87-.39,1.36,1.36,0,0,1-.5-.64,1.75,1.75,0,0,1,0-1,2.17,2.17,0,0,1,.4-.86,2.78,2.78,0,0,1,.77-.71,4.19,4.19,0,0,1,1.07-.48,4.79,4.79,0,0,1,1.35-.18,4.73,4.73,0,0,1,1.24.15,2.16,2.16,0,0,1,.92.46,1.6,1.6,0,0,1,.51.82,2.66,2.66,0,0,1,0,1.22h-1a1.45,1.45,0,0,0-.3-1.5,2.22,2.22,0,0,0-1.51-.46,3,3,0,0,0-1.15.19,2.51,2.51,0,0,0-.73.42,1.47,1.47,0,0,0-.4.49,2.27,2.27,0,0,0-.16.38.89.89,0,0,0,.14.83,1.89,1.89,0,0,0,.7.48,4.47,4.47,0,0,0,.94.27l.87.21.84.28a2.57,2.57,0,0,1,.71.4,1.35,1.35,0,0,1,.42.63A1.65,1.65,0,0,1,108.2,85.44Z" transform="translate(-6.03 -4.64)"/><path class="cls-2" d="M120.87,85.44a2.55,2.55,0,0,1-.56,1.14,3.31,3.31,0,0,1-.94.77,4,4,0,0,1-1.15.41,5.67,5.67,0,0,1-1.21.13,5.47,5.47,0,0,1-1.42-.17,2.4,2.4,0,0,1-1-.54,1.76,1.76,0,0,1-.5-.93,3,3,0,0,1,0-1.36h1a1.79,1.79,0,0,0,.3,1.73,2.45,2.45,0,0,0,1.77.55,3.75,3.75,0,0,0,.79-.09,3.24,3.24,0,0,0,.81-.28,2.3,2.3,0,0,0,.66-.5,1.59,1.59,0,0,0,.39-.75,1.19,1.19,0,0,0,0-.74,1.1,1.1,0,0,0-.44-.47,3.26,3.26,0,0,0-.75-.3l-.94-.24c-.38-.09-.74-.19-1.08-.29a2.68,2.68,0,0,1-.87-.39,1.36,1.36,0,0,1-.5-.64,1.75,1.75,0,0,1,0-1,2.17,2.17,0,0,1,.4-.86,2.78,2.78,0,0,1,.77-.71,4.19,4.19,0,0,1,1.07-.48,4.79,4.79,0,0,1,1.35-.18,4.73,4.73,0,0,1,1.24.15,2.26,2.26,0,0,1,.93.46,1.65,1.65,0,0,1,.5.82,2.66,2.66,0,0,1,0,1.22h-1a1.45,1.45,0,0,0-.3-1.5,2.22,2.22,0,0,0-1.51-.46,3,3,0,0,0-1.15.19,2.51,2.51,0,0,0-.73.42,1.47,1.47,0,0,0-.4.49,3.66,3.66,0,0,0-.16.38.89.89,0,0,0,.14.83,1.89,1.89,0,0,0,.7.48A4.47,4.47,0,0,0,118,83l.87.21.84.28a2.43,2.43,0,0,1,.71.4,1.35,1.35,0,0,1,.42.63A1.65,1.65,0,0,1,120.87,85.44Z" transform="translate(-6.03 -4.64)"/><path class="cls-2" d="M123.52,87.73a2.48,2.48,0,0,1-.63-.07,1,1,0,0,1-.49-.27,1,1,0,0,1-.26-.55,2.38,2.38,0,0,1,.06-.89l1-4.44a1.87,1.87,0,0,0,.06-.67.63.63,0,0,0-.14-.37.48.48,0,0,0-.3-.17,1.84,1.84,0,0,0-.41,0l.58-.85a2.62,2.62,0,0,1,.64.07,1,1,0,0,1,.48.27,1,1,0,0,1,.26.55,2.39,2.39,0,0,1-.06.89l-1,4.44a2.14,2.14,0,0,0-.06.67.63.63,0,0,0,.15.37.49.49,0,0,0,.3.16,2.58,2.58,0,0,0,.4,0Zm2.15-11.13a.64.64,0,0,1-.24.52.84.84,0,0,1-1.09,0,.68.68,0,0,1,0-1,.84.84,0,0,1,1.09,0A.64.64,0,0,1,125.67,76.6Z" transform="translate(-6.03 -4.64)"/><path class="cls-2" d="M132.36,87.73a2.4,2.4,0,0,1-.69-.09,1,1,0,0,1-.47-.29,1,1,0,0,1-.23-.54A2.24,2.24,0,0,1,131,86l.77-3.32a3.64,3.64,0,0,0,.11-1,1.82,1.82,0,0,0-.22-.8,1.31,1.31,0,0,0-.57-.52,2.06,2.06,0,0,0-.95-.2,2.93,2.93,0,0,0-1.2.25A3.51,3.51,0,0,0,128,81a3.93,3.93,0,0,0-.69,1,5.26,5.26,0,0,0-.42,1.13l-1.08,4.6h-1l1.43-6.19a2.14,2.14,0,0,0,.06-.67.7.7,0,0,0-.14-.37.5.5,0,0,0-.31-.17,1.75,1.75,0,0,0-.4,0l.58-.85a1.51,1.51,0,0,1,.78.16.93.93,0,0,1,.4.41,1.41,1.41,0,0,1,.12.59,5.31,5.31,0,0,1,0,.68,3.73,3.73,0,0,1,1.46-1.51,3.89,3.89,0,0,1,1.95-.51,2.34,2.34,0,0,1,2,.79,2.5,2.5,0,0,1,.28,2.15l-.77,3.32q-.19.84,0,1.11a.89.89,0,0,0,.72.27Z" transform="translate(-6.03 -4.64)"/><path class="cls-2" d="M140.3,87.73a2.62,2.62,0,0,1-.64-.07,1,1,0,0,1-.49-.27,1,1,0,0,1-.25-.55A2.19,2.19,0,0,1,139,86l1.78-7.73a1.87,1.87,0,0,0,.06-.67.63.63,0,0,0-.14-.37.47.47,0,0,0-.3-.16,2.73,2.73,0,0,0-.41,0l.6-.85a2.45,2.45,0,0,1,.62.07,1,1,0,0,1,.49.26,1,1,0,0,1,.25.54,2.38,2.38,0,0,1-.06.89l-1.78,7.73a1.92,1.92,0,0,0-.07.67.64.64,0,0,0,.16.37.49.49,0,0,0,.3.16,2.34,2.34,0,0,0,.39,0Z" transform="translate(-6.03 -4.64)"/><path class="cls-2" d="M143.31,87.73a2.59,2.59,0,0,1-.63-.07,1,1,0,0,1-.49-.27,1,1,0,0,1-.26-.55A2.22,2.22,0,0,1,142,86l1-4.44a1.92,1.92,0,0,0,.07-.67.7.7,0,0,0-.15-.37.45.45,0,0,0-.3-.17,1.75,1.75,0,0,0-.4,0l.57-.85a2.62,2.62,0,0,1,.64.07,1.07,1.07,0,0,1,.49.27,1.12,1.12,0,0,1,.25.55,2.19,2.19,0,0,1-.06.89l-1,4.44a2.14,2.14,0,0,0-.06.67.63.63,0,0,0,.15.37.49.49,0,0,0,.31.16,2.34,2.34,0,0,0,.39,0Zm.15-9.11h-.74l2.53-2.32h1.19Z" transform="translate(-6.03 -4.64)"/><path class="cls-2" d="M158,87.73a1.41,1.41,0,0,1-1.21-.44,1.65,1.65,0,0,1-.1-1.34l.76-3.32a3.17,3.17,0,0,0,.11-1,1.87,1.87,0,0,0-.22-.81,1.31,1.31,0,0,0-.57-.52,2.06,2.06,0,0,0-1-.2,2.93,2.93,0,0,0-1.2.25,3.46,3.46,0,0,0-.94.66,3.93,3.93,0,0,0-.69,1,4.8,4.8,0,0,0-.43,1.13l-1.07,4.6h-1l1.19-5.15a2.38,2.38,0,0,0-.14-1.76,1.59,1.59,0,0,0-1.51-.68,2.93,2.93,0,0,0-1.2.25,3.32,3.32,0,0,0-.94.66,3.46,3.46,0,0,0-.69,1,4.8,4.8,0,0,0-.43,1.13l-1.07,4.6h-1L146,81.51a1.61,1.61,0,0,0,0-.93c-.1-.22-.36-.32-.8-.31l.58-.86a1.56,1.56,0,0,1,.75.15.93.93,0,0,1,.4.41,1.39,1.39,0,0,1,.14.59,4,4,0,0,1,0,.69,3.51,3.51,0,0,1,.65-.84,4.25,4.25,0,0,1,.84-.64,3.95,3.95,0,0,1,1.93-.54,2.52,2.52,0,0,1,1.72.56,2,2,0,0,1,.6,1.65,4.11,4.11,0,0,1,1.46-1.66,3.89,3.89,0,0,1,2-.55,2.32,2.32,0,0,1,2,.79,2.47,2.47,0,0,1,.28,2.15l-.8,3.46a1.6,1.6,0,0,0,0,.93c.1.21.36.32.79.31Z" transform="translate(-6.03 -4.64)"/><path class="cls-2" d="M161,87.73a2.62,2.62,0,0,1-.64-.07,1,1,0,0,1-.49-.27,1,1,0,0,1-.25-.55,2,2,0,0,1,.06-.89l1-4.44a2.14,2.14,0,0,0,.06-.67.7.7,0,0,0-.14-.37.5.5,0,0,0-.31-.17,1.75,1.75,0,0,0-.4,0l.58-.85a2.59,2.59,0,0,1,.63.07,1,1,0,0,1,.49.27,1.13,1.13,0,0,1,.26.55,2.23,2.23,0,0,1-.07.89l-1,4.44a1.92,1.92,0,0,0-.07.67.58.58,0,0,0,.16.37.49.49,0,0,0,.3.16,2.34,2.34,0,0,0,.39,0Zm2.14-11.13a.64.64,0,0,1-.24.52.79.79,0,0,1-.54.2.81.81,0,0,1-.55-.2.68.68,0,0,1,0-1,.87.87,0,0,1,.55-.2.84.84,0,0,1,.54.2A.64.64,0,0,1,163.13,76.6Z" transform="translate(-6.03 -4.64)"/><path class="cls-2" d="M164,87.73a2.53,2.53,0,0,1-.63-.07,1,1,0,0,1-.49-.27,1,1,0,0,1-.26-.55,2.22,2.22,0,0,1,.07-.89L164,80.16h-.87l.18-.72h.86l.5-2,1.11-.37-.58,2.39h.87l-.16.72h-.87l-1.27,5.47a2.14,2.14,0,0,0-.06.67.63.63,0,0,0,.15.37.49.49,0,0,0,.3.16,2.58,2.58,0,0,0,.4,0Z" transform="translate(-6.03 -4.64)"/><path class="cls-2" d="M172.47,86.08a4.64,4.64,0,0,1-1,1,4.44,4.44,0,0,1-1.23.62,4.65,4.65,0,0,1-1.4.21,3.36,3.36,0,0,1-1.54-.33,2.67,2.67,0,0,1-1-.9,3.09,3.09,0,0,1-.45-1.33,4.77,4.77,0,0,1,.1-1.62A6.79,6.79,0,0,1,166.6,82a5.51,5.51,0,0,1,1.1-1.42,4.93,4.93,0,0,1,1.48-1,4.71,4.71,0,0,1,1.81-.35,3.84,3.84,0,0,1,1.21.19,2.54,2.54,0,0,1,.93.56,2.41,2.41,0,0,1,.54.9,2.57,2.57,0,0,1,.08,1.22l-6.88,2.31a3.91,3.91,0,0,0,0,1,2,2,0,0,0,.36.85,1.83,1.83,0,0,0,.71.57,2.6,2.6,0,0,0,1.06.2,3.05,3.05,0,0,0,1-.16,3.61,3.61,0,0,0,.89-.47,3.26,3.26,0,0,0,1.2-1.68h1A4.44,4.44,0,0,1,172.47,86.08Zm-.26-5.57a2,2,0,0,0-1.39-.46,3.26,3.26,0,0,0-1.39.28,3.78,3.78,0,0,0-1.09.75,4.58,4.58,0,0,0-.8,1.09,5.18,5.18,0,0,0-.49,1.31l-.05.24,5.74-1.94A1.66,1.66,0,0,0,172.21,80.51Z" transform="translate(-6.03 -4.64)"/><path class="cls-2" d="M181,85.44a2.67,2.67,0,0,1-.57,1.14,3.27,3.27,0,0,1-.93.77,4.21,4.21,0,0,1-1.16.41,5.6,5.6,0,0,1-1.21.13,5.47,5.47,0,0,1-1.42-.17,2.36,2.36,0,0,1-1-.54,1.84,1.84,0,0,1-.51-.93,3.19,3.19,0,0,1,.05-1.36h1a1.77,1.77,0,0,0,.31,1.73,2.41,2.41,0,0,0,1.76.55,3.92,3.92,0,0,0,.8-.09,3.17,3.17,0,0,0,.8-.28,2.3,2.3,0,0,0,.66-.5,1.5,1.5,0,0,0,.39-.75,1.19,1.19,0,0,0,0-.74,1.1,1.1,0,0,0-.44-.47,3.08,3.08,0,0,0-.75-.3l-.94-.24c-.38-.09-.74-.19-1.08-.29a2.53,2.53,0,0,1-.86-.39,1.38,1.38,0,0,1-.51-.64,1.75,1.75,0,0,1,0-1,2.32,2.32,0,0,1,.4-.86,2.92,2.92,0,0,1,.77-.71,4.11,4.11,0,0,1,1.08-.48,4.67,4.67,0,0,1,1.34-.18,4.81,4.81,0,0,1,1.25.15,2.28,2.28,0,0,1,.92.46,1.65,1.65,0,0,1,.5.82,2.53,2.53,0,0,1,0,1.22h-1a1.45,1.45,0,0,0-.31-1.5,2.2,2.2,0,0,0-1.51-.46,2.89,2.89,0,0,0-1.14.19,2.57,2.57,0,0,0-.74.42,1.47,1.47,0,0,0-.4.49,2,2,0,0,0-.15.38.86.86,0,0,0,.13.83,1.89,1.89,0,0,0,.7.48,4.47,4.47,0,0,0,.94.27q.51.1.87.21c.29.09.57.18.84.28a2.43,2.43,0,0,1,.71.4,1.45,1.45,0,0,1,.43.63A1.85,1.85,0,0,1,181,85.44Z" transform="translate(-6.03 -4.64)"/><path class="cls-2" d="M183.34,87.17a.86.86,0,0,1-.36.52,1,1,0,0,1-.6.2.65.65,0,0,1-.5-.2.55.55,0,0,1-.11-.52.9.9,0,0,1,.36-.52,1,1,0,0,1,.59-.2.69.69,0,0,1,.5.2A.49.49,0,0,1,183.34,87.17Z" transform="translate(-6.03 -4.64)"/><path class="cls-2" d="M186.36,87.17a1,1,0,0,1-.36.52,1,1,0,0,1-.6.2.63.63,0,0,1-.5-.2.5.5,0,0,1-.11-.52.86.86,0,0,1,.36-.52,1,1,0,0,1,.58-.2.71.71,0,0,1,.51.2A.53.53,0,0,1,186.36,87.17Z" transform="translate(-6.03 -4.64)"/><path class="cls-2" d="M189.37,87.17a.86.86,0,0,1-.36.52,1,1,0,0,1-.6.2.65.65,0,0,1-.5-.2.55.55,0,0,1-.11-.52,1,1,0,0,1,.36-.52,1,1,0,0,1,.59-.2.69.69,0,0,1,.5.2A.49.49,0,0,1,189.37,87.17Z" transform="translate(-6.03 -4.64)"/></svg>